<svg width="294" height="81" viewBox="0 0 294 81" fill="none" xmlns="http://www.w3.org/2000/svg">
<path d="M165.431 42.6012C164.096 40.1938 162.099 38.316 159.428 36.9437C156.818 35.5835 153.841 34.8974 150.509 34.8974C147.679 34.8974 144.983 35.3669 142.423 36.2937C139.924 37.1725 137.694 38.4002 135.758 39.9771C133.871 41.5059 132.364 43.2753 131.262 45.2976L133.173 46.4291C135.513 47.8134 138.515 47.5245 140.499 45.6828C141.161 45.0689 141.884 44.5031 142.68 43.9855C144.849 42.6253 147.299 41.9392 150.019 41.9392C151.685 41.9392 153.241 42.2642 154.687 42.9262C156.181 43.5281 157.357 44.479 158.191 45.7911C159.024 47.043 159.269 48.656 158.938 50.618L158.754 51.9903L142.68 54.5422C139.397 55.0357 136.542 55.9385 134.092 57.2505C131.703 58.5024 129.841 60.1395 128.505 62.1617C127.231 64.1238 126.582 66.3988 126.582 68.9628C126.582 71.635 127.243 73.8739 128.579 75.6795C129.914 77.4249 131.666 78.761 133.835 79.6879C136.064 80.5666 138.453 81 141.002 81C143.391 81 145.645 80.6509 147.752 79.9407C149.86 79.2305 151.783 78.2434 153.51 76.9916C154.307 76.3897 155.03 75.7277 155.703 75.0416L155.005 80.0249H162.675L166.84 50.943C167.281 47.7893 166.816 44.9967 165.431 42.6012ZM149.504 72.7424C147.397 73.9462 145.032 74.548 142.423 74.548C140.144 74.548 138.282 74.0304 136.836 72.9952C135.452 71.8998 134.754 70.4313 134.754 68.5776C134.754 66.5553 135.587 64.8942 137.253 63.5821C138.919 62.2219 141.173 61.283 144.003 60.8015L157.872 58.4543L157.504 61.1265C157.174 63.5821 156.279 65.8451 154.834 67.9275C153.449 69.9257 151.673 71.5387 149.504 72.7424Z" fill="#0047FF"/>
<path d="M118.68 80.5186C114.232 80.5186 110.949 79.2667 108.842 76.7509C106.734 74.2352 105.975 70.7203 106.587 66.1823L109.834 43.1671H101.748L102.753 35.8725H104.26C106.257 35.8725 107.96 35.2466 109.344 33.9827C110.79 32.7308 111.623 31.1179 111.843 29.1558L112.346 25.7132H120.272L118.851 35.8725H128.775L128.456 38.0152C128.015 40.9763 125.43 43.1671 122.392 43.1671H117.773L114.441 66.4351C114.22 67.9036 114.245 69.1916 114.526 70.287C114.808 71.3222 115.421 72.1407 116.364 72.7426C117.307 73.2842 118.667 73.5611 120.444 73.5611C120.946 73.5611 121.473 73.537 122.024 73.4769C122.637 73.4167 123.188 73.3685 123.69 73.3083L123.102 80.1093C122.38 80.326 121.571 80.4344 120.689 80.4344C119.856 80.4946 119.182 80.5186 118.68 80.5186Z" fill="#0047FF"/>
<path d="M99.0653 44.9726C97.5093 41.9633 95.2551 39.5438 92.3147 37.678C89.3744 35.8243 85.7847 34.8974 81.558 34.8974C78.1643 34.8974 75.0524 35.5474 72.2223 36.8595C69.4413 38.1114 66.9665 39.8929 64.798 42.1799C62.6907 44.479 61.049 47.0911 59.8851 50.0403C58.7702 52.9894 58.2189 56.1311 58.2189 59.4654C58.2189 63.6182 59.1133 67.3257 60.8897 70.5998C62.7275 73.8258 65.2268 76.3656 68.3876 78.2194C71.5608 80.0731 75.2239 81 79.3894 81C82.391 81 85.1966 80.5305 87.8062 79.6037C90.4157 78.6166 92.6945 77.3045 94.6425 75.6675C96.5905 73.9702 98.0851 72.1165 99.1388 70.0942L97.105 68.9989C94.7895 67.759 91.9104 68.0961 90.0114 69.8896C89.1906 70.66 88.2962 71.3582 87.3039 71.9841C85.1354 73.3443 82.5258 74.0304 79.4629 74.0304C77.0127 74.0304 74.7951 73.5128 72.7982 72.4776C70.8012 71.3822 69.184 69.8294 67.9588 67.8072C66.7214 65.6645 66.1456 63.1247 66.2191 60.1876H100.646C100.817 59.4774 100.976 58.5987 101.148 57.5635C101.32 56.5283 101.393 55.5413 101.393 54.6144C101.405 51.1477 100.621 47.9217 99.0653 44.9726ZM67.8853 50.8708C69.0492 47.9819 70.7522 45.743 72.9697 44.154C75.2484 42.517 78.0785 41.6985 81.4722 41.6985C84.143 41.6985 86.4463 42.3846 88.3942 43.7448C90.3422 45.0568 91.7267 46.8263 92.5597 49.0652C93.0988 50.4736 93.3071 52.0023 93.1968 53.6514H67.0155C67.2605 52.6884 67.5423 51.7615 67.8853 50.8708Z" fill="#0047FF"/>
<path d="M52.6077 32.1168C50.329 28.0242 47.0823 24.8223 42.8556 22.5352C38.6901 20.1879 33.7405 19.0083 28.0191 19.0083H8.67403L2.84235 60.0191H11.0753L15.9269 26.3871H27.2595C31.4862 26.3871 35.1004 27.2056 38.102 28.8427C41.1649 30.4798 43.4927 32.827 45.1099 35.8845C46.7761 38.9419 47.6091 42.5411 47.6091 46.6939C47.6091 50.5217 46.9966 54.0125 45.7714 57.1783C44.5463 60.3441 42.7943 63.1006 40.5156 65.4479C38.298 67.747 35.6517 69.5165 32.6011 70.7684C29.5383 72.0202 26.1201 72.6582 22.3467 72.6582H21.342H9.26209H6.32175C3.29565 72.6582 0.747332 74.849 0.318531 77.786L0 80.0249H22.1751C27.3943 80.0249 32.0988 79.2064 36.2643 77.5694C40.4298 75.8721 43.995 73.5249 46.9353 70.5276C49.9369 67.4701 52.2157 63.8951 53.7716 59.8024C55.3276 55.6496 56.1117 51.1236 56.1117 46.2004C56.1117 40.8558 54.9355 36.1493 52.6077 32.1168Z" fill="#0047FF"/>
<path d="M292.797 55.0475C292.123 54.5179 291.229 54.2411 290.151 54.2411C288.963 54.2411 287.958 54.6142 287.247 55.3124C284.76 57.7559 282.126 60.2236 279.431 62.6551C276.772 64.9662 274.187 66.9403 271.737 68.5172C270.598 69.2876 269.078 70.0821 267.241 70.8765C265.55 71.6108 264.019 71.9719 262.659 71.9719C262.12 71.9719 261.973 71.8515 261.973 71.8515C261.973 71.8515 261.826 71.6709 261.826 71.033C261.826 68.6857 263.21 65.4838 265.942 61.5356L265.991 61.4514C266.04 61.3671 267.204 59.2606 267.621 58.1171C268.172 56.6124 267.572 55.0837 266.775 54.3133C266.065 53.6151 265.06 53.242 263.872 53.242C262.757 53.242 261.752 53.6512 260.931 54.4577L260.858 54.5299C260.343 55.1077 260.245 55.204 260.184 55.2763C260.11 55.3485 260.098 55.3605 259.62 55.9142C259.167 56.4439 259.118 56.492 259.094 56.5161C259.045 56.5642 258.983 56.6124 258.689 56.9374C258.616 57.0096 251.657 64.6773 248.374 67.0848C246.744 68.3246 244.784 69.5404 242.505 70.732C240.557 71.7913 238.707 72.333 237.041 72.333C236.122 72.333 235.84 72.1284 235.804 72.0802C235.681 71.9719 235.62 71.671 235.62 71.2737C235.62 69.3959 236.085 67.3737 236.98 65.2551C238.021 62.9079 239.344 60.5726 240.925 58.2856C242.505 55.9985 244.135 53.9883 245.764 52.3151C249.243 48.8604 252.441 46.2483 255.296 44.5511C257.954 42.9622 260.319 42.1557 262.316 42.1557C263.712 42.1557 264.251 42.4446 264.423 42.565C264.509 42.6372 264.68 42.7576 264.68 43.3353C264.68 43.7085 264.594 44.0455 264.423 44.4067L264.386 44.4909C264.043 45.2854 263.859 46.1039 263.859 46.9345C263.859 48.1623 264.276 49.1975 265.048 49.9197C265.807 50.6179 266.824 50.979 268.086 50.979C268.895 50.979 269.667 50.7503 270.304 50.3169C270.904 49.9197 271.394 49.3419 271.749 48.6197C272.288 47.5243 272.558 46.0678 272.558 44.1418C272.558 41.1446 271.713 38.7973 270.034 37.1843C268.368 35.5834 265.967 34.7648 262.891 34.7648C259.743 34.7648 256.435 35.6195 253.103 37.2927C249.88 38.8334 246.707 40.964 243.681 43.6122C240.68 46.1641 237.911 49.0771 235.485 52.2669C234.382 53.6753 233.378 55.1198 232.471 56.5883C231.099 57.8522 229.482 59.2967 227.632 60.9338C225.488 62.8958 223.148 64.8338 220.71 66.7116C218.296 68.4811 215.907 69.9857 213.579 71.1533C211.46 72.2367 209.561 72.7784 207.944 72.7784C207.858 72.7784 207.772 72.7784 207.699 72.7784C207.735 71.9237 208.017 70.383 209.01 67.6144C210.014 64.581 210.774 63.1366 211.239 62.4505C211.423 62.1736 211.913 61.5356 213.163 60.0069C214.192 58.6828 215.258 57.2865 216.373 55.8059C217.475 54.3373 218.345 53.1697 218.97 52.3151L219.019 52.2429C220.599 49.9077 222.082 47.6206 223.43 45.4419C224.152 44.2742 224.679 43.3113 225.059 42.4927C225.525 41.4696 225.745 40.6631 225.745 39.9649C225.745 38.7492 225.316 37.738 224.508 37.0278C223.76 36.3778 222.743 36.0408 221.518 36.0408C220.55 36.0408 219.558 36.4019 218.492 37.1482C217.671 37.726 216.789 38.5445 215.797 39.6399C214.069 41.5779 212.256 44.0937 210.394 47.115C208.569 50.0762 206.792 53.254 205.138 56.5041L205.101 56.5763C203.509 59.8745 202.161 63.0282 201.132 65.9292C200.017 68.9626 199.478 71.358 199.478 73.2358C199.478 75.5349 200.189 77.3285 201.573 78.5924L201.634 78.6405C203.068 79.8322 205.089 80.41 207.833 80.41C210.909 80.41 214.204 79.5554 217.622 77.8701C220.857 76.2812 223.858 74.4997 226.566 72.5617C226.835 72.3571 227.105 72.1404 227.387 71.9358C227.411 74.596 228.195 76.6784 229.751 78.1229C231.295 79.5553 233.512 80.2896 236.33 80.2896C241.782 80.2896 247.589 77.8942 253.629 73.1636C253.813 75.1377 254.475 76.7266 255.59 77.8942C256.962 79.3266 258.934 80.0489 261.458 80.0489C264.57 80.0489 267.388 79.5192 269.838 78.4961C272.105 77.5451 274.053 76.6062 275.67 75.6914C278.034 74.2469 280.546 72.3811 283.168 70.1302C285.704 67.8672 288.595 65.1588 291.731 62.0653C293.263 60.5606 293.998 59.1402 293.998 57.6957C294.035 56.6124 293.594 55.6735 292.797 55.0475Z" fill="#0047FF"/>
<path d="M236.232 17.2148C235.277 17.2148 234.248 17.4796 233.169 18.0092L233.084 18.0453C232.153 18.5509 231.013 19.5741 229.518 21.1991C229.016 21.7047 228.404 22.4991 227.607 23.7149C226.872 24.8464 226.198 26.0019 225.623 27.1093C225.304 27.6871 225.071 28.1686 224.9 28.602C224.655 29.2038 224.544 29.6974 224.544 30.1668C224.544 31.3705 224.936 32.3937 225.659 33.1159C226.394 33.8382 227.423 34.2113 228.661 34.2113C229.788 34.2113 230.695 33.8863 231.332 33.2604C231.454 33.14 231.577 32.9715 231.809 32.6585C232.557 31.6474 234.284 29.2761 236.735 27.8196C238.707 26.8566 240.802 24.1 240.802 21.488C240.802 20.1639 240.349 19.0685 239.491 18.2981C238.695 17.5879 237.592 17.2148 236.232 17.2148Z" fill="#0047FF"/>
<path d="M201.769 51.7615C203.95 47.9577 206.02 44.4428 207.919 41.3372C209.892 38.2196 211.926 35.1381 213.959 32.1889L213.996 32.1287C216.03 29.1194 218.382 25.8694 220.967 22.4749C224.716 17.5637 227.926 13.7961 230.536 11.2683C231.773 10.0645 232.876 9.13765 233.807 8.52375C234.75 7.89782 235.277 7.74135 235.497 7.6932C235.914 7.75339 236.343 7.75337 236.796 7.68115C237.923 7.52467 238.842 6.99503 239.43 6.1765C239.981 5.39408 240.19 4.41906 240.03 3.33571C239.92 2.56533 239.651 1.9033 239.234 1.37366C238.719 0.723649 237.984 0.290297 237.164 0.157888C236.453 -0.0106333 235.706 -0.0467471 234.958 0.0615879C232.336 0.434742 229.396 2.10793 225.966 5.18946C222.854 7.98209 219.252 12.0386 215.246 17.2507L215.209 17.2989C213.028 20.1638 210.7 23.3897 208.311 26.8685C205.971 30.2871 203.595 33.8862 201.255 37.5696C198.89 41.2169 196.587 44.9002 194.406 48.5234C192.274 52.0744 190.277 55.4569 188.439 58.6347C186.43 62.2098 184.617 65.1709 183.024 67.458C182.939 67.5784 182.853 67.6987 182.767 67.8191C181.309 54.6745 181.542 42.5169 183.49 31.6232C184.066 28.325 184.556 25.8814 184.972 24.3286C185.193 23.4379 185.364 22.7157 185.462 22.1379C185.56 21.5721 185.658 20.898 185.56 20.2962C185.389 19.1165 184.776 18.1535 183.845 17.5757C183.024 17.0702 182.02 16.9017 180.856 17.0582C180.01 17.1785 179.263 17.5517 178.687 18.1415C178.185 18.6591 177.842 19.3212 177.67 20.1036L176.69 24.4731C175.857 28.0481 175.232 31.9362 174.853 36.0288C174.461 40.0252 174.203 44.3225 174.069 48.8003C173.824 57.1542 174.448 66.483 175.906 76.522C176.041 77.4609 176.629 78.773 178.614 79.76C179.741 80.3378 180.77 80.6147 181.713 80.6147C181.934 80.6147 182.142 80.6026 182.351 80.5665C182.988 80.4823 183.588 80.2175 184.188 79.748C184.58 79.4471 184.972 79.0739 185.389 78.5924C186.099 77.7859 186.896 76.6665 187.827 75.1738C189.53 72.4534 191.6 69.0469 193.977 65.0265C196.917 60.0069 199.49 55.5893 201.708 51.7976L201.769 51.7615Z" fill="#0047FF"/>
</svg>
