<?xml version="1.0" encoding="UTF-8"?> <svg xmlns="http://www.w3.org/2000/svg" width="200" height="200" viewBox="0 0 200 200" fill="none"><path d="M127.763 30.5869C130.264 29.8608 132.887 29.8289 135.514 30.3789L136.077 30.5059L136.098 30.5107C136.816 30.6878 137.53 31.0242 138.163 31.543L138.164 31.542C138.167 31.5442 138.169 31.5476 138.172 31.5498C138.176 31.5531 138.181 31.5553 138.185 31.5586L138.184 31.5596C140.576 33.5265 141.042 36.2473 141.145 36.791L141.209 37.165C141.272 37.5952 141.319 38.1974 141.235 38.9961C141.152 39.7878 140.949 40.6827 140.611 41.749C141.471 41.6244 142.373 41.6184 143.321 41.7578H143.322C143.788 41.8257 144.935 42.0372 146.217 42.6416C147.418 43.208 148.982 44.2392 150.055 46.0518L150.262 46.4248L150.264 46.4268C152.011 49.773 150.94 53.1235 149.727 55.4883C148.502 57.8736 146.56 60.3635 144.835 62.5957C144.232 63.3773 143.638 64.1454 143.055 64.9229C142.967 65.0404 142.88 65.1592 142.792 65.2773C143.833 65.5019 144.979 65.9086 146.051 66.5508C147.31 67.3053 148.718 68.5407 149.479 70.4326H149.478C150.868 73.8899 149.311 76.8981 147.761 78.9131C146.231 80.9018 143.894 82.9928 141.582 85.083C138.964 87.4514 136.162 89.9899 133.461 93.0029L133.46 93.0039C129.273 97.6721 127.207 101.401 122.666 109.664C117.534 119.002 114.651 125.578 112.854 131.806V131.808C112.214 134.02 111.499 136.725 110.938 140.363V140.364C110.137 145.554 110.222 149.149 110.379 151.945L110.448 153.098V153.1C110.612 155.728 110.941 159.127 109.12 162.327V162.328C106.547 166.847 101.429 168.562 95.6992 168.981H95.6982C94.7035 169.054 93.6594 169.089 92.5693 169.089C86.1693 169.089 77.8087 167.874 67.7588 165.584V165.585C65.4964 165.075 63.8516 163.145 63.6846 160.855L63.6738 160.633L63.3232 149.166C62.4363 145.516 57.2612 124.336 55.3252 118.011V118.01C51.5608 105.718 49.5755 97.2513 49.1084 90.8682C48.6701 84.8785 49.5321 80.1684 52.4092 75.8242L52.4111 75.8213C53.2601 74.5418 54.2789 73.3461 55.1611 72.3076C57.3573 69.7203 59.4404 67.2345 60.8047 62.9287C60.9099 62.5954 61.0015 62.2764 61.1211 61.874C61.4042 60.9111 61.8336 59.3831 62.5557 58.0898C63.3611 56.6474 64.827 54.9619 67.3477 54.5146H67.3486C69.9246 54.0583 72.0116 55.2168 73.333 56.332C73.4458 56.4272 73.5554 56.5262 73.6641 56.626C73.6913 56.6114 73.7187 56.5964 73.7461 56.582L73.7471 56.5811C76.2396 55.2702 79.1889 54.6839 81.6016 54.4814C82.8421 54.3773 84.0465 54.3661 85.1133 54.4404C86.0879 54.5084 87.2652 54.6674 88.2773 55.0723C88.4533 55.1426 88.6488 55.2115 89.0039 55.3389L89.5947 55.5518C90.2383 55.7869 91.0482 56.0986 92.1035 56.5635L92.666 56.8105C97.6766 59.0167 101.456 60.5823 104.071 63.5537L104.321 63.8457L104.322 63.8467C104.437 63.9848 104.546 64.1241 104.652 64.2627C106.705 60.4136 107.453 59.2726 108.194 58.1533L108.196 58.1494C108.82 57.2113 109.495 56.2121 112.106 51.2617C113.366 48.872 114.42 46.8067 115.363 44.9629C117.271 41.2286 118.823 38.1634 120.449 35.9219C122.232 33.4656 124.279 31.7335 127.229 30.7529L127.763 30.5869ZM79.2666 77.3535C78.5326 80.6343 77.2297 83.5206 75.9551 85.79C75.7258 87.268 76.2569 88.4817 76.9639 89.1025L77.1221 89.2295L77.124 89.2305C77.6116 89.5866 78.1982 89.7212 78.8184 89.7188C79.4561 89.7162 79.8784 89.5658 79.6885 89.6279C79.6992 89.6244 79.7099 89.6206 79.7207 89.6172C80.2236 89.4574 80.7147 89.0975 81.2461 88.3652C81.8117 87.5856 82.2341 86.6574 82.7148 85.5664C83.9167 82.8335 84.0594 79.9581 83.7549 77.415C83.4264 77.453 83.0965 77.481 82.7656 77.498L82.7666 77.499C82.1596 77.5307 80.8706 77.6065 79.2666 77.3535Z" fill="white" stroke="white" stroke-width="8" stroke-linejoin="round"></path><path d="M141.613 69.1245C139.403 68.772 137.41 69.9091 134.281 72.2802C133.695 72.7247 133.112 73.1815 132.536 73.6483C134.79 69.7328 137.241 66.0086 139.855 62.5227C140.458 61.7182 141.074 60.9237 141.668 60.154C145.27 55.4912 148.381 51.4641 146.718 48.2786C145.653 46.2427 143.222 45.7858 142.745 45.7163C138.77 45.1279 135.483 48.8174 128.938 57.3757C128.667 57.7283 128.402 58.0784 128.139 58.426C128.879 57.0852 129.651 55.6675 130.415 54.2324C137.767 40.4353 137.382 38.4118 137.216 37.5453C137.127 37.0735 136.853 35.636 135.634 34.6403C135.49 34.5212 135.321 34.4392 135.14 34.3945C132.759 33.821 130.522 33.8731 128.491 34.5485C124.494 35.8768 122.865 39.0697 118.925 46.7839C117.984 48.6237 116.919 50.7118 115.645 53.1276C112.996 58.1504 112.251 59.2751 111.528 60.3626C110.861 61.3706 110.17 62.4109 108.122 66.2569C107.851 66.7634 107.593 67.2549 107.342 67.7267C106.185 69.9165 104.78 72.5831 103.966 73.3553C103.896 73.0822 103.829 72.7172 103.775 72.4217C103.491 70.8998 103.064 68.5982 101.242 66.3984C99.3625 64.1315 96.5867 62.9075 91.0549 60.4718L90.4913 60.2235C89.2176 59.6624 88.3536 59.3546 87.6584 59.1063C87.3332 58.9896 87.0526 58.8902 86.7919 58.786C85.0663 58.0957 79.2962 58.1826 75.6092 60.1217C74.482 60.7151 73.6254 61.4327 73.0419 62.2694C71.7061 60.01 69.9384 58.1181 68.0465 58.4533C66.1992 58.781 65.5959 60.8368 64.9553 63.0143C64.8461 63.3817 64.7368 63.7591 64.6176 64.1365C62.9963 69.2536 60.4539 72.2529 58.2094 74.8971C57.2982 75.9697 56.4392 76.9852 55.744 78.033C53.4945 81.4295 52.7025 85.1811 53.0973 90.5763C53.5293 96.4805 55.3964 104.582 59.1504 116.84C61.2236 123.613 66.8448 146.706 67.3091 148.625L67.6715 160.51C67.6889 161.077 68.0861 161.558 68.6373 161.682C78.5737 163.947 86.6032 165.089 92.5695 165.089C93.575 165.089 94.521 165.057 95.4073 164.992C100.738 164.602 104.087 163.083 105.644 160.349C106.769 158.373 106.637 156.265 106.456 153.347C106.265 150.291 106.004 146.107 106.985 139.754C107.581 135.888 108.343 133.006 109.011 130.696C110.923 124.072 113.957 117.207 119.161 107.738C123.677 99.5195 125.944 95.393 130.482 90.333C133.343 87.1425 136.295 84.4735 138.899 82.1172C143.743 77.7375 146.941 74.845 145.767 71.9252C145.089 70.2393 143.105 69.3629 141.611 69.122L141.613 69.1245ZM76.4459 72.1263C78.9014 73.693 81.4637 73.5614 82.5586 73.5043C84.0086 73.4298 85.4462 73.0822 86.7894 72.4863C87.8595 76.0293 88.7881 81.6951 86.3748 87.1797C85.4537 89.2703 84.0657 92.4334 80.9324 93.4291C80.7958 93.4737 77.5284 94.4793 74.765 92.4607C72.4063 90.7401 71.371 87.5 72.168 84.3567C74.0525 81.1415 75.9568 76.65 75.8649 71.7191C76.0561 71.8631 76.2523 71.9997 76.4459 72.1238V72.1263Z" stroke="black" stroke-width="6.02457" stroke-linejoin="round"></path></svg> 