<?xml version="1.0" encoding="UTF-8"?> <svg xmlns="http://www.w3.org/2000/svg" width="335" height="335" viewBox="0 0 335 335" fill="none"><g clip-path="url(#clip0_47_649)"><path fill-rule="evenodd" clip-rule="evenodd" d="M-458.683 530.877C-459.629 526.893 -460.441 522.896 -461.119 518.886C-461.65 515.748 -462.099 512.602 -462.466 509.448C-462.466 509.448 -462.466 509.448 -462.466 509.447C-464.209 494.497 -464.123 479.363 -462.25 464.021C-462.25 464.019 -462.249 464.018 -462.249 464.016C-461.923 461.343 -461.542 458.665 -461.108 455.98C-458.938 442.646 -455.987 429.503 -451.946 416.578C-451.946 416.577 -451.945 416.576 -451.945 416.574C-450.224 411.071 -448.306 405.607 -446.166 400.185C-443.447 393.312 -440.161 386.602 -436.779 379.956C-436.778 379.955 -436.778 379.954 -436.777 379.953C-436.649 379.702 -436.521 379.45 -436.392 379.199C-435.602 377.651 -434.721 376.143 -433.84 374.633C-432.032 371.537 -430.223 368.44 -429.193 365.009C-428.796 363.683 -427.918 362.44 -427.068 361.235C-426.953 361.072 -426.838 360.909 -426.725 360.748C-424.121 357.016 -421.451 353.34 -418.704 349.727C-402.316 328.17 -383.225 308.891 -359.408 293.889C-355.608 291.495 -351.777 289.132 -347.882 286.878C-347.879 286.876 -347.876 286.875 -347.873 286.873C-337.289 280.75 -326.225 275.437 -314.002 272.522C-314 272.521 -313.998 272.52 -313.995 272.52C-313.319 272.359 -312.639 272.205 -311.955 272.058C-306.082 270.804 -300.27 269.14 -294.507 267.402C-293.911 267.222 -293.314 267.049 -292.717 266.881C-292.71 266.879 -292.702 266.877 -292.695 266.875C-278.158 262.794 -263.457 262.335 -248.708 263.407C-248.708 263.407 -248.708 263.407 -248.708 263.407C-247.909 263.465 -247.109 263.527 -246.309 263.594C-239.59 264.157 -232.953 265.114 -226.456 266.589C-226.431 266.595 -226.406 266.6 -226.382 266.606C-223.808 267.192 -221.256 267.859 -218.731 268.615C-218.023 268.827 -217.317 269.046 -216.613 269.272C-212.834 270.485 -210.082 269.496 -207.709 266.441C-206.025 264.272 -204.295 262.138 -202.522 260.037C-202.52 260.035 -202.519 260.034 -202.518 260.032C-201.436 258.75 -200.338 257.48 -199.225 256.222C-198.287 255.161 -197.337 254.108 -196.379 253.062C-196.378 253.061 -196.377 253.06 -196.376 253.059C-189.032 245.053 -181.119 237.515 -172.952 230.284C-171.448 228.951 -169.929 227.633 -168.395 226.329C-165.387 223.771 -162.324 221.271 -159.205 218.831C-159.204 218.83 -159.203 218.829 -159.202 218.828C-149.297 211.082 -138.827 203.951 -127.758 197.562C-125.204 196.088 -122.683 194.557 -120.163 193.026C-113.595 189.036 -107.029 185.047 -99.8776 182.088C-97.0354 180.914 -94.2456 179.618 -91.455 178.322C-91.0487 178.133 -90.6424 177.944 -90.2358 177.756C-90.2338 177.755 -90.2318 177.754 -90.2298 177.753C-84.5328 175.113 -78.7997 172.546 -72.5774 171.077C-69.7018 170.403 -66.8603 169.167 -64.2833 167.741C-60.2902 165.52 -56.0326 163.945 -51.6945 162.898C-51.6904 162.897 -51.6863 162.896 -51.6821 162.895C-48.952 162.237 -46.1901 161.788 -43.4422 161.518C-39.263 161.11 -35.1847 160.34 -31.1139 159.57C-28.6393 159.103 -26.1675 158.636 -23.6775 158.251C-23.6748 158.25 -23.672 158.25 -23.6692 158.249C-23.5212 158.227 -23.373 158.204 -23.2248 158.182C-13.9652 156.784 -4.58388 155.877 4.74759 155.544C12.0604 155.284 19.3212 155.354 26.518 155.799C26.5204 155.799 26.5228 155.799 26.5253 155.799C40.4737 156.662 54.1817 158.934 67.5618 162.945C74.9271 165.15 82.0144 167.866 88.8622 171.054C92.1158 172.569 95.3152 174.191 98.4648 175.915C99.1108 176.269 99.7001 176.57 100.243 176.815C100.251 176.818 100.259 176.822 100.267 176.826C100.703 177.022 101.11 177.181 101.491 177.303C101.504 177.307 101.517 177.311 101.53 177.315C104.231 178.162 105.679 177.082 107.772 173.499C109.826 169.985 111.981 166.538 114.231 163.155C116.844 159.226 119.586 155.383 122.448 151.618C122.449 151.616 122.45 151.614 122.452 151.613C128.891 143.143 135.937 135.072 143.493 127.329C145.602 125.168 147.716 123.01 149.842 120.862C153.894 116.767 157.989 112.708 162.174 108.736C165.355 105.721 168.598 102.77 171.903 99.8829C171.909 99.878 171.914 99.8731 171.92 99.8682C173.028 98.9005 174.143 97.9401 175.265 96.9868C175.267 96.9848 175.27 96.9827 175.272 96.9807C180.371 92.6486 185.613 88.4643 190.999 84.425C191.003 84.4221 191.007 84.4192 191.011 84.4163C192.082 83.613 193.159 82.8155 194.241 82.0237C194.244 82.0216 194.247 82.0195 194.25 82.0174C194.558 81.7921 194.866 81.5673 195.175 81.343C195.554 81.0668 195.942 80.7941 196.333 80.5193C198.102 79.2768 199.935 77.9888 201.286 76.1246C201.3 76.1052 201.314 76.0857 201.328 76.0661C201.747 75.4786 202.119 74.8341 202.426 74.1163C201.898 73.9749 201.37 73.8506 200.844 73.7432C200.826 73.7395 200.808 73.7359 200.79 73.7322C197.26 73.0194 193.778 73.0648 190.322 73.828C190.319 73.8286 190.316 73.8293 190.314 73.8299C190.144 73.8675 189.974 73.9068 189.804 73.9479C189.799 73.9491 189.794 73.9503 189.789 73.9516C189.127 74.112 188.465 74.2988 187.805 74.5117C183.562 75.8851 179.455 75.5408 175.222 75.186C174.794 75.1502 174.365 75.1142 173.934 75.0799C173.919 75.0786 173.903 75.0774 173.888 75.0762C166.185 74.4598 161.614 70.004 158.085 64.6887C156.137 61.7641 156.276 58.1613 157.324 54.8169C157.612 53.8981 157.969 52.9989 158.37 52.1385C160.255 48.0896 162.652 44.3384 165.977 41.276C165.996 41.2581 166.016 41.2401 166.035 41.2222C167.899 39.5153 170.054 38.0242 172.572 36.8173C173.448 36.3971 174.32 35.9708 175.191 35.5446C175.208 35.5365 175.224 35.5284 175.241 35.5204C175.278 35.5021 175.316 35.4838 175.353 35.4654C175.935 35.1803 176.517 34.8955 177.1 34.6126C177.109 34.6083 177.118 34.604 177.127 34.5997C181.747 32.3569 186.403 30.2434 191.558 29.1752L191.566 29.2092L191.558 29.1752L191.586 29.1694C191.604 29.1656 191.623 29.1618 191.641 29.158C194.54 28.5539 197.693 27.8906 200.063 26.3352C201.921 25.1172 203.868 24.1755 205.867 23.3924C208.572 22.3329 211.371 21.5636 214.176 20.793C215.483 20.4338 216.792 20.0743 218.092 19.6849C218.798 19.4737 219.503 19.2653 220.206 19.0572C225.632 17.453 230.998 15.8663 236.146 13.1249C244.966 8.41986 254.56 9.13936 263.471 12.1997C272.501 15.3057 277.956 21.7599 277.7 31.0507C277.596 34.8288 278.133 38.4012 278.886 41.9349C279.253 43.6562 279.672 45.3682 280.093 47.0903L280.158 47.3561C280.308 47.9693 280.466 48.5805 280.623 49.1912C281.547 52.7775 282.467 56.3473 281.882 60.2001C281.653 61.7325 281.938 63.3785 282.324 64.8911C282.525 65.6803 282.714 66.4711 282.891 67.2635C282.896 67.2861 282.901 67.3087 282.906 67.3313C283.906 71.8151 284.551 76.349 285.054 80.9037C285.055 80.9162 285.057 80.9287 285.058 80.9412C285.395 83.9985 285.668 87.0652 285.941 90.1323C286.125 92.2083 286.31 94.2845 286.515 96.3582C286.632 97.549 286.756 98.739 286.89 99.9276C287.055 101.387 287.229 102.845 287.402 104.303C288.017 109.482 288.632 114.662 288.88 119.881C288.899 120.267 288.915 120.654 288.929 121.041C288.929 121.043 288.929 121.046 288.929 121.049C288.973 122.288 288.99 123.53 288.982 124.773C288.982 124.777 288.982 124.781 288.982 124.784C288.965 127.1 288.858 129.417 288.658 131.727C288.453 134.075 287.802 136.495 286.83 138.7C283.28 146.813 274.24 148.267 268.649 141.453C266.398 138.707 264.547 135.721 263.194 132.453C262.824 131.559 262.491 130.644 262.198 129.707C262.17 129.616 262.141 129.525 262.114 129.434C262.111 129.425 262.109 129.416 262.106 129.408C261.949 128.889 261.804 128.362 261.671 127.83C261.658 127.777 261.645 127.724 261.632 127.672C261.626 127.647 261.619 127.621 261.613 127.596C261.088 125.489 260.551 123.385 260.005 121.283C260.002 121.273 260 121.262 259.997 121.252C258.861 116.88 257.685 112.518 256.494 108.16C256.48 108.11 256.466 108.06 256.453 108.01C256.042 106.51 255.63 105.009 255.217 103.509C255.216 103.509 255.216 103.509 255.216 103.508C255.065 102.959 254.913 102.41 254.762 101.86C254.516 100.968 254.269 100.076 254.023 99.1842C253.465 97.1646 252.908 95.1451 252.352 93.1252C252.349 93.1132 252.346 93.1012 252.342 93.0892C252.066 92.0835 251.79 91.0777 251.515 90.0717C251.45 89.8317 251.385 89.5912 251.32 89.3505C251.259 89.1255 251.199 88.9004 251.137 88.6752C250.641 86.8497 250.111 85.0263 249.303 83.3387C248.572 81.8026 246.854 81.1499 245.103 82.3257C242.998 83.7411 240.996 85.3226 239.041 86.9305C238.282 87.5572 237.522 88.1832 236.762 88.8085C236.275 89.2092 235.787 89.6097 235.299 90.01C235.269 90.035 235.238 90.0601 235.208 90.0851C235.201 90.0903 235.195 90.0956 235.188 90.1008C232.492 92.3127 229.788 94.5175 227.084 96.7219C227.067 96.7359 227.049 96.7501 227.032 96.7642C226.862 96.9029 226.692 97.0416 226.521 97.1803C222.378 100.557 218.235 103.934 214.117 107.335C214.104 107.346 214.09 107.357 214.077 107.368C212.062 109.033 210.052 110.703 208.051 112.382C207.296 113.015 206.543 113.65 205.791 114.286C204.451 115.419 203.115 116.556 201.784 117.699C201.768 117.713 201.751 117.728 201.735 117.742C200.169 119.087 198.61 120.44 197.061 121.801C196.334 122.439 195.609 123.079 194.886 123.721C194.432 124.124 193.979 124.528 193.527 124.933C190.641 127.517 187.793 130.131 184.989 132.782C184.986 132.785 184.983 132.788 184.98 132.79C178.886 138.55 172.998 144.479 167.376 150.632C167.374 150.634 167.372 150.636 167.37 150.638C161.175 157.42 155.301 164.472 149.829 171.868C145.335 177.945 140.947 184.055 136.718 190.263C136.695 190.296 136.673 190.329 136.651 190.362C136.648 190.366 136.645 190.37 136.642 190.375C136.371 190.773 136.101 191.171 135.831 191.57C135.233 192.454 134.638 193.341 134.047 194.229C133.381 195.23 132.719 196.234 132.062 197.241C129.47 201.216 129.638 204.451 132.627 208.073C134.561 210.414 136.305 212.84 137.877 215.337C137.992 215.519 138.106 215.702 138.219 215.885C141.664 221.47 144.263 227.403 146.222 233.543C146.237 233.589 146.251 233.635 146.266 233.682C146.819 235.424 147.32 237.183 147.775 238.955C148.077 240.133 148.359 241.317 148.621 242.505C149.365 245.877 149.954 249.288 150.42 252.716C150.607 254.094 150.762 255.47 150.884 256.842C150.886 256.867 150.888 256.892 150.89 256.917C151.085 259.139 151.193 261.353 151.209 263.557C151.23 266.507 151.088 269.437 150.772 272.342C150.763 272.424 150.753 272.507 150.744 272.589C150.707 272.916 150.668 273.244 150.627 273.571C150.544 274.23 150.452 274.889 150.35 275.546C149.899 278.465 149.266 281.356 148.442 284.211C148.431 284.248 148.42 284.286 148.409 284.323C148.179 285.113 147.935 285.9 147.676 286.684C147.674 286.689 147.673 286.694 147.671 286.698C145.622 292.894 142.64 298.909 138.62 304.67C138.615 304.677 138.611 304.684 138.606 304.691C137.492 306.287 136.298 307.863 135.023 309.418C128.836 316.958 121.124 321.779 111.236 322.59C111.212 322.592 111.188 322.594 111.164 322.596C109.526 322.727 107.828 322.748 106.067 322.653C97.7302 322.207 91.555 318.713 86.4267 313.478C82.2204 309.186 79.3778 304.044 77.4614 298.268C77.371 297.995 77.2819 297.723 77.1941 297.45C77.1785 297.402 77.1629 297.353 77.1474 297.305C76.443 295.107 75.8199 292.907 75.2795 290.705C74.3741 287.015 73.701 283.317 73.2669 279.606C73.2636 279.577 73.2602 279.548 73.2568 279.519C72.8385 275.911 72.6462 272.291 72.6864 268.655C72.6873 268.575 72.6883 268.496 72.6894 268.416C72.6972 267.854 72.7105 267.292 72.7294 266.729C72.7297 266.721 72.73 266.713 72.7302 266.705C72.7745 265.399 72.8488 264.091 72.9534 262.78C73.0433 261.655 73.1555 260.528 73.2902 259.399C73.2921 259.383 73.294 259.367 73.2959 259.351C73.3786 258.662 73.4697 257.971 73.5693 257.28C73.6358 256.819 73.706 256.357 73.78 255.895C73.792 255.82 73.8041 255.745 73.8164 255.67C74.3594 252.335 75.0995 248.982 76.0414 245.608C76.7076 243.219 77.3298 240.822 77.9517 238.425C78.5369 236.17 79.1219 233.916 79.7429 231.671C79.7477 231.654 79.7524 231.636 79.7571 231.619C80.4678 229.053 81.226 226.498 82.0861 223.967C82.3708 223.129 82.6666 222.294 82.9756 221.462C84.1218 218.375 85.4488 215.33 87.0572 212.348C87.2529 211.985 87.4223 211.639 87.5653 211.307C87.5684 211.3 87.5715 211.293 87.5745 211.285C89.0097 207.934 87.7548 206.043 83.7303 203.553C83.6312 203.492 83.5321 203.431 83.4328 203.37C83.4324 203.369 83.4319 203.369 83.4314 203.369C82.4596 202.772 81.4819 202.191 80.4984 201.625C80.247 201.48 79.9952 201.336 79.7431 201.194C73.0603 197.41 66.1082 194.319 58.881 191.937C58.8784 191.936 58.8758 191.935 58.8732 191.934C48.3325 188.461 37.2068 186.497 25.4782 186.095C18.9169 185.868 12.3778 185.809 5.83373 186.008C5.83297 186.008 5.83216 186.008 5.83141 186.008C-2.32217 186.257 -10.4833 186.909 -18.704 188.14C-18.7102 188.141 -18.7164 188.142 -18.7226 188.143C-18.8549 188.163 -18.9872 188.183 -19.1195 188.203C-26.0052 189.249 -32.7619 190.647 -39.5322 192.047C-39.8319 192.109 -40.1317 192.171 -40.4314 192.233C-40.4357 192.234 -40.44 192.235 -40.4443 192.235C-42.1426 192.587 -43.8423 192.937 -45.5454 193.281C-46.8966 193.554 -48.2346 193.864 -49.5605 194.205C-49.5836 194.211 -49.6067 194.217 -49.6298 194.223C-55.1918 195.66 -60.5437 197.649 -65.7874 199.837C-65.8031 199.844 -65.8187 199.85 -65.8343 199.857C-69.0616 201.205 -72.2479 202.627 -75.4172 204.042C-76.2904 204.432 -77.1623 204.821 -78.0333 205.208C-81.5014 206.75 -84.9309 208.357 -88.3185 210.032C-88.3217 210.033 -88.3249 210.035 -88.3281 210.037C-96.7058 214.179 -104.827 218.737 -112.643 223.747C-112.646 223.749 -112.648 223.75 -112.65 223.751C-121.648 229.52 -130.242 235.888 -138.357 242.913C-140.547 244.809 -142.766 246.677 -144.989 248.539C-145.007 248.554 -145.025 248.569 -145.042 248.584C-145.557 249.014 -146.071 249.445 -146.586 249.875C-146.8 250.054 -147.014 250.234 -147.229 250.413C-147.237 250.42 -147.245 250.427 -147.254 250.434C-148.757 251.692 -150.26 252.951 -151.754 254.217C-151.755 254.219 -151.757 254.22 -151.759 254.221C-154.269 256.349 -156.756 258.499 -159.185 260.703C-162.228 263.463 -165.18 266.308 -167.978 269.302C-169.294 270.71 -170.575 272.152 -171.815 273.632C-172.323 274.238 -172.867 274.821 -173.411 275.402C-174.301 276.354 -175.188 277.302 -175.907 278.348C-177.389 280.5 -178.367 282.028 -178.776 283.268C-178.977 283.879 -179.041 284.42 -178.958 284.932C-178.713 286.458 -177.172 287.726 -174.128 289.803C-171.441 291.638 -168.839 293.549 -166.329 295.539C-164.187 297.237 -162.113 298.992 -160.109 300.804C-160.104 300.809 -160.098 300.814 -160.093 300.819C-158.616 302.156 -157.178 303.525 -155.78 304.926C-155.779 304.927 -155.778 304.928 -155.777 304.929C-147.759 312.966 -141.078 322.058 -136.073 332.288C-135.758 332.933 -135.441 333.579 -135.124 334.225C-134.556 335.384 -133.986 336.545 -133.42 337.71C-133.418 337.714 -133.417 337.717 -133.415 337.721C-129.5 345.786 -125.792 354.02 -124.085 362.85C-124.083 362.861 -124.081 362.872 -124.079 362.883C-123.846 364.095 -123.65 365.317 -123.497 366.553C-123.359 367.659 -123.216 368.765 -123.073 369.873C-122.159 376.935 -121.239 384.037 -121.855 391.254C-122.067 393.74 -122.31 396.225 -122.553 398.71C-122.969 402.957 -123.385 407.204 -123.641 411.454C-124.29 422.197 -127.404 432.274 -132.025 441.966C-132.025 441.967 -132.026 441.968 -132.026 441.969C-133.696 445.472 -135.563 448.924 -137.581 452.34C-138.012 453.067 -138.483 453.778 -138.954 454.488C-139.63 455.507 -140.305 456.526 -140.86 457.592C-145.29 466.17 -151.739 472.859 -159.496 478.463C-159.501 478.466 -159.505 478.469 -159.509 478.472C-162.363 480.533 -165.393 482.447 -168.565 484.254C-185.704 494.014 -202.649 494.461 -219.652 486.369C-230.191 481.35 -238.12 474.35 -244.101 465.9C-244.101 465.9 -244.101 465.9 -244.101 465.9C-248.444 459.763 -251.76 452.862 -254.302 445.4C-254.951 443.501 -255.422 441.541 -255.892 439.582C-256.439 437.309 -256.985 435.036 -257.808 432.86C-259.984 427.119 -261.04 421.134 -261.416 415.133C-261.416 415.133 -261.416 415.132 -261.416 415.132C-261.606 412.097 -261.622 409.057 -261.521 406.042C-261.088 393.141 -260.112 380.261 -257.637 367.533C-257.635 367.526 -257.634 367.519 -257.633 367.512C-256.104 359.658 -254.005 351.862 -251.111 344.153C-251.081 344.072 -251.051 343.992 -251.02 343.912C-250.845 343.447 -250.666 342.981 -250.484 342.516C-250.348 342.167 -250.211 341.818 -250.075 341.468C-249.49 339.964 -248.909 338.458 -248.328 336.953C-247.35 334.418 -246.372 331.884 -245.374 329.357C-244.744 327.76 -244.105 326.166 -243.454 324.576C-243.451 324.569 -243.448 324.562 -243.445 324.555C-243.229 324.029 -243.012 323.504 -242.794 322.979C-242.791 322.972 -242.787 322.964 -242.784 322.957C-241.735 320.438 -240.648 317.933 -239.505 315.447C-238.087 312.366 -236.581 309.315 -234.948 306.309C-233.855 304.296 -232.706 302.303 -231.488 300.334C-231.246 299.941 -231.234 299.428 -231.219 298.761C-231.21 298.384 -231.2 297.957 -231.148 297.475C-234.155 296.181 -237.352 295.292 -240.634 294.677C-240.649 294.674 -240.664 294.671 -240.679 294.668C-243.029 294.23 -245.422 293.931 -247.818 293.723C-248.151 293.694 -248.484 293.667 -248.816 293.642C-248.819 293.642 -248.823 293.642 -248.826 293.641C-249.395 293.598 -249.964 293.559 -250.533 293.525C-256.37 293.171 -262.223 293.001 -268.062 293.427C-272.594 293.757 -277.118 294.447 -281.618 295.688C-281.629 295.691 -281.64 295.694 -281.651 295.697C-282.283 295.872 -282.914 296.057 -283.545 296.254C-284.23 296.468 -284.916 296.679 -285.602 296.887C-285.607 296.889 -285.611 296.89 -285.615 296.891C-285.971 296.999 -286.327 297.107 -286.684 297.214C-292.897 299.077 -299.184 300.751 -305.5 302.215C-305.505 302.216 -305.509 302.217 -305.514 302.218C-306.08 302.349 -306.647 302.478 -307.214 302.606C-316.591 304.722 -324.85 308.987 -333.085 313.554C-336.551 315.475 -339.929 317.485 -343.222 319.581C-343.223 319.581 -343.224 319.582 -343.225 319.582C-363.765 332.652 -381.019 349.043 -395.764 367.78C-397.283 369.71 -398.717 371.696 -400.086 373.726C-400.09 373.733 -400.095 373.74 -400.1 373.748C-400.951 375.011 -401.776 376.292 -402.579 377.588C-402.581 377.59 -402.583 377.593 -402.584 377.596C-405.531 382.348 -408.184 387.294 -410.741 392.288C-410.743 392.293 -410.746 392.298 -410.748 392.303C-410.872 392.545 -410.996 392.787 -411.119 393.029C-414.1 398.88 -416.781 404.806 -419.361 410.762C-419.365 410.771 -419.369 410.779 -419.373 410.788C-420.712 413.88 -422.024 416.98 -423.337 420.083C-424.385 422.557 -425.432 425.032 -426.495 427.506C-431.06 438.137 -433.931 449.058 -436.052 460.035C-436.053 460.042 -436.055 460.049 -436.056 460.057C-436.573 462.734 -437.046 465.415 -437.487 468.095C-439.742 481.802 -441.468 495.638 -441.562 509.589C-441.59 513.626 -441.345 517.592 -440.897 521.509C-440.244 527.229 -439.159 532.843 -437.861 538.417C-437.861 538.417 -437.861 538.418 -437.861 538.418C-436.673 543.52 -435.307 548.589 -433.931 553.675C-433.596 554.917 -433.081 555.975 -432.433 556.902C-432.432 556.903 -432.431 556.904 -432.431 556.905C-431.612 558.075 -430.579 559.037 -429.423 559.896C-429.416 559.901 -429.408 559.906 -429.401 559.912C-428.318 560.714 -427.126 561.428 -425.9 562.139C-423.89 563.303 -423.151 565.05 -424.221 567.176C-425.203 569.123 -426.938 570.468 -429.258 570.499C-429.758 570.507 -430.25 570.503 -430.736 570.485C-430.738 570.485 -430.739 570.484 -430.74 570.484C-434.947 570.327 -438.641 569.143 -441.719 565.998C-441.722 565.994 -441.725 565.991 -441.729 565.987C-441.73 565.986 -441.731 565.985 -441.732 565.984L-441.723 565.982C-441.724 565.98 -441.725 565.979 -441.726 565.978C-441.73 565.975 -441.733 565.971 -441.736 565.968C-444.304 563.339 -446.57 560.562 -448.53 557.626C-448.531 557.624 -448.532 557.622 -448.533 557.62C-449.375 556.359 -450.16 555.069 -450.889 553.748C-450.895 553.737 -450.901 553.725 -450.908 553.714C-452.628 550.591 -454.033 547.297 -455.122 543.821C-456.468 539.521 -457.655 535.206 -458.683 530.877ZM-208.643 327.062C-210.387 330.512 -211.908 333.982 -213.401 337.457C-215.799 343.052 -218.074 348.698 -220.022 354.418C-220.022 354.419 -220.023 354.421 -220.023 354.422C-220.257 355.108 -220.486 355.796 -220.71 356.485C-222.484 361.943 -223.938 367.471 -224.896 373.091C-226.819 384.42 -227.764 395.754 -227.217 407.192C-227.217 407.194 -227.217 407.196 -227.217 407.198C-227.138 408.849 -227.028 410.502 -226.885 412.158C-226.635 415.061 -226.286 417.92 -225.822 420.735C-225.82 420.744 -225.819 420.754 -225.817 420.763C-225.038 425.475 -223.937 430.063 -222.438 434.528C-222.437 434.533 -222.435 434.538 -222.434 434.542C-220.751 439.553 -218.568 444.409 -215.781 449.11C-213.559 452.859 -210.224 456.009 -206.204 458.112C-206.202 458.113 -206.2 458.114 -206.199 458.115C-199.753 461.485 -191.549 462.164 -183.349 458.306C-183.347 458.305 -183.346 458.304 -183.344 458.303C-181.383 457.38 -179.422 456.197 -177.486 454.729C-173.324 451.578 -170.006 447.935 -167.227 443.973C-167.212 443.951 -167.197 443.929 -167.181 443.907C-165.687 441.771 -164.348 439.542 -163.117 437.249C-163.114 437.242 -163.11 437.235 -163.106 437.229C-161.818 434.826 -160.647 432.353 -159.54 429.841C-156.583 423.132 -154.726 416.396 -153.68 409.641C-153.68 409.641 -153.68 409.641 -153.68 409.64C-152.599 402.655 -152.385 395.648 -152.718 388.629C-152.719 388.626 -152.719 388.623 -152.719 388.62C-153.007 382.559 -153.704 376.489 -154.603 370.414C-154.603 370.413 -154.603 370.412 -154.603 370.411C-154.735 369.521 -154.871 368.63 -155.011 367.739C-155.72 363.254 -157.659 359.224 -159.597 355.194C-160.56 353.194 -161.522 351.193 -162.333 349.137C-162.455 348.83 -162.579 348.524 -162.705 348.22C-163.04 347.413 -163.391 346.618 -163.759 345.833C-163.759 345.832 -163.76 345.83 -163.761 345.829C-165.482 342.151 -167.55 338.702 -169.874 335.42C-172.342 331.936 -175.097 328.642 -178.03 325.463C-180.085 323.237 -182.218 321.059 -184.549 319.042C-186.19 317.622 -187.928 316.283 -189.806 315.064C-190.166 314.83 -190.531 314.601 -190.902 314.376C-190.904 314.375 -190.905 314.374 -190.907 314.373C-193.062 313.067 -195.401 311.92 -197.979 310.988C-197.988 310.985 -197.997 310.982 -198.006 310.978L-198.011 310.96C-198.019 310.969 -198.026 310.977 -198.033 310.985C-199.978 313.225 -201.69 315.483 -203.226 317.755C-203.236 317.769 -203.245 317.783 -203.254 317.797C-203.645 318.376 -204.025 318.956 -204.394 319.536C-205.978 322.031 -207.37 324.541 -208.643 327.062ZM108.734 250.461C109.178 248.507 109.701 246.56 110.32 244.621C110.323 244.61 110.326 244.599 110.33 244.588C110.53 243.963 110.74 243.339 110.96 242.716C111.383 241.526 112.076 240.626 113.573 240.625C113.577 240.625 113.582 240.625 113.586 240.625C113.591 240.625 113.596 240.625 113.601 240.625L113.586 240.639C113.591 240.639 113.596 240.639 113.601 240.639C113.605 240.639 113.61 240.639 113.614 240.639C115.15 240.67 115.722 241.767 116.051 242.852C116.134 243.121 116.216 243.391 116.295 243.662C116.3 243.678 116.305 243.693 116.309 243.709C116.408 244.043 116.504 244.377 116.597 244.711C116.598 244.715 116.6 244.718 116.601 244.722C116.95 245.966 117.272 247.21 117.588 248.428C117.784 249.185 117.977 249.932 118.173 250.664C118.989 252.727 119.568 254.79 119.949 256.854C119.949 256.856 119.949 256.857 119.949 256.859C120.013 257.205 120.071 257.552 120.124 257.899C120.125 257.905 120.126 257.911 120.127 257.917C121.01 263.745 120.358 269.584 119.02 275.456C118.764 276.58 118.483 277.705 118.182 278.831C117.864 280.026 117.454 281.172 116.966 282.283C116.961 282.293 116.957 282.302 116.953 282.312C116.67 282.952 116.362 283.579 116.031 284.197C116.02 284.217 116.009 284.237 115.998 284.258C115.903 284.433 115.806 284.609 115.708 284.783C115.703 284.792 115.698 284.801 115.693 284.81C115.509 285.133 115.32 285.454 115.125 285.772C115.121 285.779 115.117 285.785 115.113 285.791C114.744 286.392 114.355 286.985 113.947 287.572C113.734 287.879 113.519 288.189 113.29 288.484C113.203 288.596 113.114 288.706 113.022 288.814C112.578 289.334 112.073 289.785 111.437 290.067C111.436 290.067 111.435 290.068 111.434 290.068C111.039 290.243 110.592 290.352 110.078 290.37C110.057 290.371 110.036 290.371 110.015 290.372C110.011 290.372 110.008 290.372 110.005 290.372C108.946 290.389 108.297 289.996 107.854 289.425C107.852 289.423 107.85 289.42 107.848 289.417C107.613 289.112 107.436 288.756 107.287 288.385C107.286 288.381 107.285 288.377 107.283 288.374C107.169 288.089 107.072 287.796 106.977 287.51C106.955 287.442 106.932 287.376 106.91 287.309C106.828 287.068 106.742 286.824 106.656 286.579C106.586 286.379 106.516 286.178 106.446 285.976C106.445 285.974 106.445 285.972 106.444 285.97C105.967 284.586 105.537 283.164 105.581 281.775C105.581 281.772 105.581 281.768 105.581 281.765C105.583 281.705 105.586 281.646 105.59 281.586C105.703 279.742 105.801 277.895 105.9 276.049C105.908 275.888 105.917 275.728 105.925 275.568C105.925 275.566 105.926 275.563 105.926 275.561C105.982 274.495 106.04 273.43 106.1 272.364C106.362 267.759 106.684 263.157 107.295 258.579C107.295 258.577 107.295 258.575 107.296 258.572C107.467 257.291 107.66 256.012 107.882 254.734C107.895 254.659 107.908 254.584 107.921 254.509C107.922 254.505 107.922 254.501 107.923 254.497C107.99 254.116 108.06 253.735 108.132 253.354C108.293 252.503 108.467 251.653 108.656 250.805C108.682 250.69 108.708 250.576 108.734 250.461Z" fill="#0047FF"></path></g><defs><clipPath id="clip0_47_649"><rect width="335" height="335" fill="white"></rect></clipPath></defs></svg> 