<?xml version="1.0" encoding="UTF-8" standalone="no"?> <svg xmlns="http://www.w3.org/2000/svg" xmlns:xlink="http://www.w3.org/1999/xlink" xmlns:serif="http://www.serif.com/" width="100%" height="100%" viewBox="0 0 108 30" version="1.1" xml:space="preserve" style="fill-rule:evenodd;clip-rule:evenodd;stroke-linejoin:round;stroke-miterlimit:2;"><g transform="matrix(1,0,0,1,0,-34.5673)"><g id="Black" transform="matrix(1,0,0,1,0,34.5673)"><rect x="0" y="0" width="108" height="30" style="fill:none;"></rect><g transform="matrix(0.0881633,0,0,0.0881633,54,15)"><g transform="matrix(1,0,0,1,-612.5,-168.75)"><clipPath id="_clip1"><rect x="0" y="0" width="1225" height="337.5"></rect></clipPath><g clip-path="url(#_clip1)"><g transform="matrix(4.16667,0,0,4.16667,0,0)"><path d="M165.431,42.601C164.096,40.194 162.099,38.316 159.428,36.944C156.818,35.584 153.841,34.897 150.509,34.897C147.679,34.897 144.983,35.367 142.423,36.294C139.924,37.173 137.694,38.4 135.758,39.977C133.871,41.506 132.364,43.275 131.262,45.298L133.173,46.429C135.513,47.813 138.515,47.525 140.499,45.683C141.161,45.069 141.884,44.503 142.68,43.986C144.849,42.625 147.299,41.939 150.019,41.939C151.685,41.939 153.241,42.264 154.687,42.926C156.181,43.528 157.357,44.479 158.191,45.791C159.024,47.043 159.269,48.656 158.938,50.618L158.754,51.99L142.68,54.542C139.397,55.036 136.542,55.939 134.092,57.251C131.703,58.502 129.841,60.14 128.505,62.162C127.231,64.124 126.582,66.399 126.582,68.963C126.582,71.635 127.243,73.874 128.579,75.68C129.914,77.425 131.666,78.761 133.835,79.688C136.064,80.567 138.453,81 141.002,81C143.391,81 145.645,80.651 147.752,79.941C149.86,79.231 151.783,78.243 153.51,76.992C154.307,76.39 155.03,75.728 155.703,75.042L155.005,80.025L162.675,80.025L166.84,50.943C167.281,47.789 166.816,44.997 165.431,42.601ZM149.504,72.742C147.397,73.946 145.032,74.548 142.423,74.548C140.144,74.548 138.282,74.03 136.836,72.995C135.452,71.9 134.754,70.431 134.754,68.578C134.754,66.555 135.587,64.894 137.253,63.582C138.919,62.222 141.173,61.283 144.003,60.801L157.872,58.454L157.504,61.127C157.174,63.582 156.279,65.845 154.834,67.928C153.449,69.926 151.673,71.539 149.504,72.742Z" style="fill-rule:nonzero;"></path></g><g transform="matrix(4.16667,0,0,4.16667,0,0)"><path d="M118.68,80.519C114.232,80.519 110.949,79.267 108.842,76.751C106.734,74.235 105.975,70.72 106.587,66.182L109.834,43.167L101.748,43.167L102.753,35.873L104.26,35.873C106.257,35.873 107.96,35.247 109.344,33.983C110.79,32.731 111.623,31.118 111.843,29.156L112.346,25.713L120.272,25.713L118.851,35.873L128.775,35.873L128.456,38.015C128.015,40.976 125.43,43.167 122.392,43.167L117.773,43.167L114.441,66.435C114.22,67.904 114.245,69.192 114.526,70.287C114.808,71.322 115.421,72.141 116.364,72.743C117.307,73.284 118.667,73.561 120.444,73.561C120.946,73.561 121.473,73.537 122.024,73.477C122.637,73.417 123.188,73.369 123.69,73.308L123.102,80.109C122.38,80.326 121.571,80.434 120.689,80.434C119.856,80.495 119.182,80.519 118.68,80.519Z" style="fill-rule:nonzero;"></path></g><g transform="matrix(4.16667,0,0,4.16667,0,0)"><path d="M99.065,44.973C97.509,41.963 95.255,39.544 92.315,37.678C89.374,35.824 85.785,34.897 81.558,34.897C78.164,34.897 75.052,35.547 72.222,36.859C69.441,38.111 66.967,39.893 64.798,42.18C62.691,44.479 61.049,47.091 59.885,50.04C58.77,52.989 58.219,56.131 58.219,59.465C58.219,63.618 59.113,67.326 60.89,70.6C62.728,73.826 65.227,76.366 68.388,78.219C71.561,80.073 75.224,81 79.389,81C82.391,81 85.197,80.531 87.806,79.604C90.416,78.617 92.695,77.305 94.643,75.668C96.591,73.97 98.085,72.117 99.139,70.094L97.105,68.999C94.79,67.759 91.91,68.096 90.011,69.89C89.191,70.66 88.296,71.358 87.304,71.984C85.135,73.344 82.526,74.03 79.463,74.03C77.013,74.03 74.795,73.513 72.798,72.478C70.801,71.382 69.184,69.829 67.959,67.807C66.721,65.665 66.146,63.125 66.219,60.188L100.646,60.188C100.817,59.477 100.976,58.599 101.148,57.564C101.32,56.528 101.393,55.541 101.393,54.614C101.405,51.148 100.621,47.922 99.065,44.973ZM67.885,50.871C69.049,47.982 70.752,45.743 72.97,44.154C75.248,42.517 78.079,41.699 81.472,41.699C84.143,41.699 86.446,42.385 88.394,43.745C90.342,45.057 91.727,46.826 92.56,49.065C93.099,50.474 93.307,52.002 93.197,53.651L67.016,53.651C67.26,52.688 67.542,51.762 67.885,50.871Z" style="fill-rule:nonzero;"></path></g><g transform="matrix(4.16667,0,0,4.16667,0,0)"><path d="M52.608,32.117C50.329,28.024 47.082,24.822 42.856,22.535C38.69,20.188 33.741,19.008 28.019,19.008L8.674,19.008L2.842,60.019L11.075,60.019L15.927,26.387L27.26,26.387C31.486,26.387 35.1,27.206 38.102,28.843C41.165,30.48 43.493,32.827 45.11,35.885C46.776,38.942 47.609,42.541 47.609,46.694C47.609,50.522 46.997,54.013 45.771,57.178C44.546,60.344 42.794,63.101 40.516,65.448C38.298,67.747 35.652,69.516 32.601,70.768C29.538,72.02 26.12,72.658 22.347,72.658L6.322,72.658C3.296,72.658 0.747,74.849 0.319,77.786L0,80.025L22.175,80.025C27.394,80.025 32.099,79.206 36.264,77.569C40.43,75.872 43.995,73.525 46.935,70.528C49.937,67.47 52.216,63.895 53.772,59.802C55.328,55.65 56.112,51.124 56.112,46.2C56.112,40.856 54.936,36.149 52.608,32.117Z" style="fill-rule:nonzero;"></path></g><g transform="matrix(4.16667,0,0,4.16667,0,0)"><path d="M292.797,55.048C292.123,54.518 291.229,54.241 290.151,54.241C288.963,54.241 287.958,54.614 287.247,55.312C284.76,57.756 282.126,60.224 279.431,62.655C276.772,64.966 274.187,66.94 271.737,68.517C270.598,69.288 269.078,70.082 267.241,70.876C265.55,71.611 264.019,71.972 262.659,71.972C262.12,71.972 261.973,71.852 261.973,71.852C261.973,71.852 261.826,71.671 261.826,71.033C261.826,68.686 263.21,65.484 265.942,61.536L265.991,61.451C266.04,61.367 267.204,59.261 267.621,58.117C268.172,56.612 267.572,55.084 266.775,54.313C266.065,53.615 265.06,53.242 263.872,53.242C262.757,53.242 261.752,53.651 260.931,54.458L260.858,54.53C260.343,55.108 260.245,55.204 260.184,55.276C260.11,55.349 260.098,55.361 259.62,55.914C259.167,56.444 259.118,56.492 259.094,56.516C259.045,56.564 258.983,56.612 258.689,56.937C258.616,57.01 251.657,64.677 248.374,67.085C246.744,68.325 244.784,69.54 242.505,70.732C240.557,71.791 238.707,72.333 237.041,72.333C236.122,72.333 235.84,72.128 235.804,72.08C235.681,71.972 235.62,71.671 235.62,71.274C235.62,69.396 236.085,67.374 236.98,65.255C238.021,62.908 239.344,60.573 240.925,58.286C242.505,55.999 244.135,53.988 245.764,52.315C249.243,48.86 252.441,46.248 255.296,44.551C257.954,42.962 260.319,42.156 262.316,42.156C263.712,42.156 264.251,42.445 264.423,42.565C264.509,42.637 264.68,42.758 264.68,43.335C264.68,43.709 264.594,44.045 264.423,44.407L264.386,44.491C264.043,45.285 263.859,46.104 263.859,46.935C263.859,48.162 264.276,49.198 265.048,49.92C265.807,50.618 266.824,50.979 268.086,50.979C268.895,50.979 269.667,50.75 270.304,50.317C270.904,49.92 271.394,49.342 271.749,48.62C272.288,47.524 272.558,46.068 272.558,44.142C272.558,41.145 271.713,38.797 270.034,37.184C268.368,35.583 265.967,34.765 262.891,34.765C259.743,34.765 256.435,35.62 253.103,37.293C249.88,38.833 246.707,40.964 243.681,43.612C240.68,46.164 237.911,49.077 235.485,52.267C234.382,53.675 233.378,55.12 232.471,56.588C231.099,57.852 229.482,59.297 227.632,60.934C225.488,62.896 223.148,64.834 220.71,66.712C218.296,68.481 215.907,69.986 213.579,71.153C211.46,72.237 209.561,72.778 207.944,72.778L207.699,72.778C207.735,71.924 208.017,70.383 209.01,67.614C210.014,64.581 210.774,63.137 211.239,62.451C211.423,62.174 211.913,61.536 213.163,60.007C214.192,58.683 215.258,57.286 216.373,55.806C217.475,54.337 218.345,53.17 218.97,52.315L219.019,52.243C220.599,49.908 222.082,47.621 223.43,45.442C224.152,44.274 224.679,43.311 225.059,42.493C225.525,41.47 225.745,40.663 225.745,39.965C225.745,38.749 225.316,37.738 224.508,37.028C223.76,36.378 222.743,36.041 221.518,36.041C220.55,36.041 219.558,36.402 218.492,37.148C217.671,37.726 216.789,38.545 215.797,39.64C214.069,41.578 212.256,44.094 210.394,47.115C208.569,50.076 206.792,53.254 205.138,56.504L205.101,56.576C203.509,59.875 202.161,63.028 201.132,65.929C200.017,68.963 199.478,71.358 199.478,73.236C199.478,75.535 200.189,77.329 201.573,78.592L201.634,78.641C203.068,79.832 205.089,80.41 207.833,80.41C210.909,80.41 214.204,79.555 217.622,77.87C220.857,76.281 223.858,74.5 226.566,72.562C226.835,72.357 227.105,72.14 227.387,71.936C227.411,74.596 228.195,76.678 229.751,78.123C231.295,79.555 233.512,80.29 236.33,80.29C241.782,80.29 247.589,77.894 253.629,73.164C253.813,75.138 254.475,76.727 255.59,77.894C256.962,79.327 258.934,80.049 261.458,80.049C264.57,80.049 267.388,79.519 269.838,78.496C272.105,77.545 274.053,76.606 275.67,75.691C278.034,74.247 280.546,72.381 283.168,70.13C285.704,67.867 288.595,65.159 291.731,62.065C293.263,60.561 293.998,59.14 293.998,57.696C294.035,56.612 293.594,55.673 292.797,55.048Z" style="fill-rule:nonzero;"></path></g><g transform="matrix(4.16667,0,0,4.16667,0,0)"><path d="M236.232,17.215C235.277,17.215 234.248,17.48 233.169,18.009L233.084,18.045C232.153,18.551 231.013,19.574 229.518,21.199C229.016,21.705 228.404,22.499 227.607,23.715C226.872,24.846 226.198,26.002 225.623,27.109C225.304,27.687 225.071,28.169 224.9,28.602C224.655,29.204 224.544,29.697 224.544,30.167C224.544,31.371 224.936,32.394 225.659,33.116C226.394,33.838 227.423,34.211 228.661,34.211C229.788,34.211 230.695,33.886 231.332,33.26C231.454,33.14 231.577,32.972 231.809,32.658C232.557,31.647 234.284,29.276 236.735,27.82C238.707,26.857 240.802,24.1 240.802,21.488C240.802,20.164 240.349,19.069 239.491,18.298C238.695,17.588 237.592,17.215 236.232,17.215Z" style="fill-rule:nonzero;"></path></g><g transform="matrix(4.16667,0,0,4.16667,0,0)"><path d="M201.769,51.762C203.95,47.958 206.02,44.443 207.919,41.337C209.892,38.22 211.926,35.138 213.959,32.189L213.996,32.129C216.03,29.119 218.382,25.869 220.967,22.475C224.716,17.564 227.926,13.796 230.536,11.268C231.773,10.065 232.876,9.138 233.807,8.524C234.75,7.898 235.277,7.741 235.497,7.693C235.914,7.753 236.343,7.753 236.796,7.681C237.923,7.525 238.842,6.995 239.43,6.177C239.981,5.394 240.19,4.419 240.03,3.336C239.92,2.565 239.651,1.903 239.234,1.374C238.719,0.724 237.984,0.29 237.164,0.158C236.453,-0.011 235.706,-0.047 234.958,0.062C232.336,0.435 229.396,2.108 225.966,5.189C222.854,7.982 219.252,12.039 215.246,17.251L215.209,17.299C213.028,20.164 210.7,23.39 208.311,26.869C205.971,30.287 203.595,33.886 201.255,37.57C198.89,41.217 196.587,44.9 194.406,48.523C192.274,52.074 190.277,55.457 188.439,58.635C186.43,62.21 184.617,65.171 183.024,67.458C182.939,67.578 182.853,67.699 182.767,67.819C181.309,54.675 181.542,42.517 183.49,31.623C184.066,28.325 184.556,25.881 184.972,24.329C185.193,23.438 185.364,22.716 185.462,22.138C185.56,21.572 185.658,20.898 185.56,20.296C185.389,19.116 184.776,18.154 183.845,17.576C183.024,17.07 182.02,16.902 180.856,17.058C180.01,17.179 179.263,17.552 178.687,18.142C178.185,18.659 177.842,19.321 177.67,20.104L176.69,24.473C175.857,28.048 175.232,31.936 174.853,36.029C174.461,40.025 174.203,44.323 174.069,48.8C173.824,57.154 174.448,66.483 175.906,76.522C176.041,77.461 176.629,78.773 178.614,79.76C179.741,80.338 180.77,80.615 181.713,80.615C181.934,80.615 182.142,80.603 182.351,80.567C182.988,80.482 183.588,80.218 184.188,79.748C184.58,79.447 184.972,79.074 185.389,78.592C186.099,77.786 186.896,76.667 187.827,75.174C189.53,72.453 191.6,69.047 193.977,65.027C196.917,60.007 199.49,55.589 201.708,51.798L201.769,51.762Z" style="fill-rule:nonzero;"></path></g></g></g></g></g></g></svg> 