<?xml version="1.0" encoding="UTF-8"?> <svg xmlns="http://www.w3.org/2000/svg" width="193" height="31" viewBox="0 0 193 31" fill="none"><g clip-path="url(#a)"><path d="M55.347 22.422h2.969V15.5h5.226c.772 0 1.395-.632 1.395-1.415 0-.782-.623-1.414-1.395-1.414h-5.226V8.457h7.66V5.75h-10.63zm13.539 0h10.927v-2.708h-7.957V15.5h5.522c.772 0 1.396-.632 1.396-1.415 0-.782-.624-1.414-1.396-1.414h-5.522V8.457h7.987V5.75H68.886zm26.545-11.316q0-2.574-1.603-3.973c-1.07-.933-2.554-1.384-4.484-1.384H83.05v16.643h2.97v-5.839h2.672l3.92 5.87h3.562l-4.305-6.381c2.346-.753 3.563-2.378 3.563-4.936m-3.83 2.137c-.564.36-1.366.541-2.346.541H85.99V8.578h3.266c1.01 0 1.782.18 2.346.541s.86 1.054.86 2.077c0 .993-.266 1.686-.86 2.047m15.677-.512-4.751-6.982h-3.296v16.673h2.969v-12.31l5.078 7.344 5.077-7.343v12.31h2.939V5.748h-3.266zm32.839 5.147-3.86-12.13h-2.583L129.696 18.3l-3.741-12.55h-2.97l5.256 16.673h3.058l3.682-11.647 3.682 11.647h2.821l5.255-16.673h-2.969zm9.205 4.544h10.927v-2.708h-7.988V15.5h5.553c.772 0 1.395-.632 1.395-1.415 0-.782-.623-1.414-1.395-1.414h-5.553V8.457h7.988V5.75h-10.927zm26.545-11.316q0-2.574-1.604-3.973c-1.069-.933-2.553-1.384-4.483-1.384h-6.295v16.643h2.969v-5.839h2.672l3.92 5.87h3.563l-4.306-6.381c2.376-.753 3.564-2.378 3.564-4.936m-3.801 2.137c-.564.36-1.366.541-2.346.541h-3.266V8.578h3.266c1.01 0 1.782.18 2.346.541s.861 1.054.861 2.077c0 .993-.297 1.686-.861 2.047m13.658-.181 6.651-7.313h-3.978l-6.206 7.072V5.75h-2.969v16.673h2.969v-5.387l1.633-1.836 5.523 7.223h3.711z" fill="#000"></path><path d="M42.817 8.578h-2.821v11.406c0 2.89-2.316 5.237-5.167 5.237s-5.166-2.347-5.166-5.237v-8.547c0-1.565-1.277-2.86-2.82-2.86-1.545 0-2.822 1.295-2.822 2.86v8.547c0 2.89-2.316 5.237-5.166 5.237s-5.167-2.347-5.167-5.237v-8.547c0-1.565-1.276-2.86-2.82-2.86-1.574 0-2.821 1.295-2.821 2.86v8.547c0 6.05 4.84 10.956 10.808 10.956 3.177 0 6.027-1.385 7.987-3.612 1.99 2.197 4.84 3.612 7.987 3.612 5.968 0 10.808-4.906 10.808-10.956V8.578z" fill="#EC6608"></path><path d="M16.004 10.955v8.548c0 1.565 1.277 2.86 2.82 2.86 1.575 0 2.822-1.295 2.822-2.86v-8.548c0-2.889 2.316-5.237 5.166-5.237s5.167 2.348 5.167 5.237v8.548c0 1.565 1.276 2.86 2.82 2.86 1.574 0 2.821-1.295 2.821-2.86v-8.548C37.65 4.905 32.78 0 26.812 0c-3.177 0-5.998 1.384-7.987 3.612C16.835 1.384 13.985 0 10.808 0c-1.87 0-3.622.482-5.166 1.324V.602H0v21.76h5.642V10.955c0-2.889 2.316-5.237 5.166-5.237 2.88 0 5.196 2.348 5.196 5.237" fill="#EC6608"></path></g><defs><clipPath id="a"><path fill="#fff" d="M0 0h193v31H0z"></path></clipPath></defs></svg> 