<?xml version="1.0" encoding="UTF-8"?> <svg xmlns="http://www.w3.org/2000/svg" width="170" height="100" viewBox="0 0 170 100" aria-labelledby="site-logo-title site-logo-desc" class="logo__svg logo__svg--rijswijk"><desc>Logo dat naar de hoofdpagina leidt</desc><path fill="#004C92" d="M29.94 27.449c1.147-.763 2.205.115 2.238.92 0 .017.038 1.469-.737 2.17-.236.214 2.897 3.04 2.67 7.607 0 0 2.726-2.97 2.613-5.663-.038-.925-.646-2.402-.493-2.29.697.507 2.43.836 3.104.151.909-1.445 2.272-.533 2.272 0 2.195-1.217 2.415.532 2.423.381 1.582-.078 2.044 2.476 2.044 2.476l-7.585-.008v5.257c-1.652.609-3.091 6.395-3.091 6.395-.91-2.131-5.887-6.255-7.086-5.036-.064.064-.6 1.528-2.076 1.534-2.02.008-2.515-2.768-2.494-2.199.484 7.193 11.126 1.514 11.884 12.095 0 0-2.877-3.122-6.512-.38-3.025 2.28-6.652 1.103-10.652-1.425-8.822-5.575-.05-18.56.074-18.787l.048.073s-1.362-2.006-.426-3.134c.658-.791 1.552-.35 1.951-.156zm-8.16 4.566s1.717.983 2.681 1.11c.152.018.45.883.456.033 0 0 .205-.205.214-1.11.005-.575-3.35-.033-3.35-.033Zm5.75.033c-.061.514.124 1.083.124 1.083-.005.718.236-.03.505-.075 1.041-.172 2.421-1.17 2.421-1.17s-2.99-.352-3.05.162m.366 3.032c-.21-.031-.375-.041-.787.05-.205.046-.795.322-1.385.154-.05-.014-1.043-.343-1.398-.222-.247.083 1.27 1.119 1.378 1.328.109.209.184 1.076-.06 1.415-.243.34-2.402 1.059-1.902 1.311.2.101 1.7-.403 1.86-.464.736-.278.696-.142 1.09-.043.163.043 1.873.848 1.91.355.013-.173-1.739-.95-1.93-1.262-.189-.313-.26-.937-.044-1.354.217-.419 1.536-1.23 1.268-1.268"></path><path fill="#004C92" d="M40.408 35.044V80.31c0 5.957 6.049 8.411 15.891 8.411 4.132 0 7.214 1.364 7.657 1.57l-.021-.067.06.026c-.065-.378-.183-.932-.196-1.305-.095-2.805.692-4.962 2.047-6.59l.076-.107c-1.117.26-5.346.962-6.28-2.997-.786-3.325-1.894-3.752-4.185-4.638 0 0 6.488-1.694 8.854 2.368 1.68 2.882.853 4.273 2.63 4.257l.02-.004c1.226-1.037 2.603-1.903 4.255-2.422.222-3.395 1.647-6.833 4.535-10.185-2.16-2.172-5.184-4.89-6.701-7.305-.707-1.127-1.354-2.718-1.472-4.275 0 0-1.098 2.76-4.063 3.612-3.751 1.079-4.187-.12-5.852.636 1.068-3.929 3.807-5.51 9.398-5.51 0 0-1.889-.265-3.395-1.14-.73-.423-1.37-.991-1.661-1.74-.92-2.373-.41-5.714-1.934-7.558 0 0 7.449 1.113 8.448 9.728.863-4.001 2.816-6.515 8.945-6.776 0 0-2.338 2.72-2.983 4.666-.834 2.514-3.809 3.468-5.614 3.319.221 2.3.86 3.743 1.72 5.038 1.433 2.157 3.6 3.777 6.116 6.255 1.739-1.718 2.916-2.625 4.882-3.871-1.937-.045-3.556-1.239-4.59-2.384-1.067-1.183-2.125-3.059-3.272-5.753 0 0 5.014.769 7.347 2.883 2.274 2.065 1.742 3.957 1.802 4.465.551-.508 3.36-2.113 3.622-2.217 0 0-4.127-1.267-3.376-6.056.908-5.77.148-5.66-.08-6.493 0 0 4.077 2.004 5.311 6.493.422 1.537.093 2.98-.314 5.054 0 0 1.655-.718 3.464-1.675v-22.8h-51.14l.05-.178ZM71.344 80.5v-.02zm-7.4 9.792c1.267 6.276 9.152 10.028 15.617 6.604q.682-.36 1.51-.652c5.005-1.778 13.818-1.584 22.426 2.841 0 0 1.91-1.068 2.231-1.602-2.042-.975-6.608-2.547-11.413-3.337-10.718-2.268-11.427-8.15-12.407-14.464l-1.454-.115c.226 1.434.421 2.859.694 4.231.828 4.165 2.378 7.84 7.725 9.845l-.585-.108c-2.735-.29-5.115-.922-7.14-1.819-5.458-2.414-8.298-6.76-8.318-11.641 0 0-1.056.246-1.485.425.254 5.672 3.867 10.654 9.803 12.949a19 19 0 0 0 1.876.613l-.077.034a18 18 0 0 0-1.799.476c-.762.245-1.5.532-2.198.883-6.161 3.097-11.15-.324-12.852-3.948l-.04-.097c-.45-.49-1.773-1.041-2.066-1.16l.013.07zm41.937-11.516c2.863-1.468 4.913-4.541 4.804-4.45-1.312 1.101-5.595-.237-5.605-.137-.008.102-2.789-1.393-7.018 2.898 0 0-.308.147.052-.328 1.06-1.403 3.897-3.928 2.714-8.143-.189-.705-.462-1.655-.106-2.989-8.337 6.154-5.398 11.153-4.105 12.062l-.266.16c-1.571.505-3.165.77-4.66.88l-.192.005V66.815l.088-.011c-2.852-.977-3.793-2.937-3.856-5.215 0 0-2.036 1.101-3.902 2.303 0 0 3.062-.69 3.915 4.104.59 3.305-.324 5.93-.324 5.93s-3.213-2.873-4.03-4.79c-.912-2.133-.504-4.658-.504-4.658-2.33 1.46-3.858 2.781-5.167 4.17 1.803 2.085 2.751 4.365 3.35 6.685.242.935.338 1.876.498 2.813 3.678.344 6.767.814 9.932.592v1.321c1.808-.133 3.397-.44 4.966-.985-.476 1.37-.207 2.45.366 3.28.654.946 1.784 1.567 2.814 1.915 3.59 1.207 7.184-.481 7.184-.481-.498-.209-1.799-.017-3.183-1.433a6 6 0 0 1-.489-.57c-1.163-1.522-2.635-2.499-4.812-3.197l.029-.112c2.043-.203 3.738 2.231 7.507.299ZM91.689 59.767l5.599-2.784c-.261 1.579-.388 3.008 1.16 4.387.24.212.518.398.842.607 3.006 1.926 8.472 1.299 8.472 1.299s-2.556-.77-3.725-3.55c-1.809-4.29-5.338-3.75-5.338-3.75 1.49-.742 3.345-2.15 4.33-3.241-.134 1.119-.016 1.846.125 2.15.45 1.51 1.511 2.364 4.022 2.773 2.799.458 3.103 1.96 3.103 1.96-.144-2.041-.595-3.821-1.058-4.974-1.711-4.249-5.132-3.29-5.132-3.29 4.982-4.831 1.256-10.061 1.256-10.061-.504 1.52-.705 1.013-3.021 4.759-2.317 3.746.101 5.87.101 5.87-.903.885-3.255 2.816-4.632 3.342 0 0 .71-1.985.769-3.325.274-6.26-2.885-9.43-2.885-9.43-.14 2.252-1.733 3.64-1.81 7.39-.041 1.916.595 3.663 1.472 4.745.713.883 1.53 1.069 1.53 1.069-1.3.548-3.562 1.62-5.37 2.31v1.542-.003.206h.19ZM76.685 69.924c-2.18 2.796-3.42 5.725-3.76 8.532 2.361-.502 4.89-.568 7.277-.393-.529-2.91-1.342-5.808-3.35-8.343zm19.242-2.234c-1.228-3.85-2.91-5.569-4.256-6.317l-.172-.053v-1.747.004-.011l-2.615 1.294c.05.052 1.282-.318 2.76.462l.014 5.494.152.04c2.69 1.086 4.117.834 4.117.834"></path><path fill="#4D902A" d="M94.751 11.122v6.628h-3.055V2.645h4.247q1.15 0 2.257.121a5.9 5.9 0 0 1 1.98.556q.874.435 1.416 1.244.541.812.541 2.19 0 1.644-.974 2.655-.973 1.011-2.808 1.367.331.156.718.534t.973 1.144 1.469 2.023q.884 1.255 2.255 3.144v.126h-3.713a183 183 0 0 0-1.78-2.79 40 40 0 0 0-1.36-1.969q-.597-.801-1.06-1.245-.465-.445-.864-.623zm4.395-4.236q0-.51-.165-.865a1.4 1.4 0 0 0-.541-.587q-.376-.233-1.017-.344a9.4 9.4 0 0 0-1.566-.11h-1.106v4.544h.73q1.943 0 2.804-.632.86-.633.86-2.006Zm9.14-3.327q0 .734-.496 1.235a1.62 1.62 0 0 1-1.199.501q-.726 0-1.232-.5a1.67 1.67 0 0 1-.505-1.236q-.001-.713.505-1.213a1.7 1.7 0 0 1 1.232-.501q.704 0 1.199.5.495.501.496 1.214m-3.264 14.19V7.466l2.971-.445v10.73h-2.971Zm9.283-.824q0 2.022-.385 3.588c-.385 1.566-.613 1.802-1.068 2.276l-2.845.578-.088-.311a6.2 6.2 0 0 0 .741-1.144 5.6 5.6 0 0 0 .42-1.232q.143-.667.199-1.477.054-.81.054-1.877v-9.84l2.972-.466zm.272-13.366q0 .735-.495 1.235a1.62 1.62 0 0 1-1.199.501q-.726 0-1.232-.5a1.67 1.67 0 0 1-.506-1.236q0-.713.506-1.213a1.7 1.7 0 0 1 1.232-.501q.703 0 1.199.5.495.501.495 1.214m10.582 10.882q0 .934-.332 1.613a3.1 3.1 0 0 1-.917 1.122 3.9 3.9 0 0 1-1.405.657q-.818.21-1.814.211-1.016 0-1.924-.122a8.6 8.6 0 0 1-1.769-.431l.089-2.57.132-.023a7.7 7.7 0 0 0 1.692.733 6.2 6.2 0 0 0 1.761.267q.929 0 1.328-.313a.98.98 0 0 0 .397-.806 1 1 0 0 0-.077-.403.8.8 0 0 0-.299-.324 3 3 0 0 0-.608-.291 15 15 0 0 0-1.006-.325 12 12 0 0 1-1.573-.555 4 4 0 0 1-1.05-.655 2.2 2.2 0 0 1-.598-.832q-.188-.467-.188-1.133 0-.91.387-1.532a3 3 0 0 1 1.007-.999q.618-.378 1.404-.544a7.5 7.5 0 0 1 1.56-.167q.84 0 1.648.1.806.099 1.514.342l-.087 2.392a9 9 0 0 0-1.657-.523 7.3 7.3 0 0 0-1.414-.144q-.795 0-1.281.212t-.486.725q0 .245.099.401.1.156.354.301a3.5 3.5 0 0 0 .707.279q.453.133 1.181.334.796.2 1.404.445.606.244 1.004.59.398.343.609.822.208.48.208 1.146m15.612 3.309h-2.629l-2.495-7.127-2.982 7.127h-2.541l-3.402-10.436h3.286l1.833 7.105 2.695-7h2.719l2.164 7.156 2.077-7.26h3.097l-3.822 10.434Zm8.925-14.191q0 .735-.494 1.235-.496.502-1.199.501a1.68 1.68 0 0 1-1.232-.5 1.67 1.67 0 0 1-.507-1.236q0-.713.507-1.213a1.68 1.68 0 0 1 1.232-.501q.702 0 1.199.5.494.501.494 1.214m-3.264 14.19V7.466l2.971-.445v10.73h-2.971Zm9.284-.824q0 2.022-.384 3.588-.386 1.566-1.069 2.276l-2.844.578-.088-.311a6.2 6.2 0 0 0 .74-1.144q.275-.566.42-1.232.143-.667.199-1.477.055-.81.055-1.877v-9.84l2.971-.466zm.272-13.366q0 .735-.494 1.235-.496.502-1.2.501-.726 0-1.232-.5a1.67 1.67 0 0 1-.506-1.236q0-.713.506-1.213a1.7 1.7 0 0 1 1.232-.501q.704 0 1.2.5.495.501.494 1.214m13.219 14.057v.134h-3.62l-3.829-4.799v4.799h-2.972V1.11l2.972-.444V11.64q.484-.465 1.003-1.031t1.005-1.142q.487-.577.904-1.132.42-.555.708-1.02h3.39v.126q-.443.533-1.028 1.166a49 49 0 0 1-2.453 2.467q-.607.566-1.071.966z"></path><path fill="#004C92" d="M30.859 88.19c-.943.029-1.84-1.369-2.318-2.428-.483-1.067-.772-1.552-1.887-3.383.461-5.975-1.847-6.463-3.088-5.096-.253.278-.583-2.543-2.28-2.287-1.28.194-1.93-1.26-1.93-1.26.456 3.49-3.71 5.919-6.188 5.08 0 0-2.983.705-4.65.89 0 0-6.843 6.012 1.389 8.54.022.008.445-.348 1.133-.36 1.24-.022 1.693 1.215 1.743 1.632s.214 1.266-.108 1.931c0 0-.196-.293-1.216-.49.015.446-.166.655-.357 1.024 0 0-.298-.523-1.313-.727.025.396-.147.507-.329.857 0 0-.286-.434-1.367-.595.025.397-.144.52-.328.876 0 0-.661-1.116-1.724-1.134-.53-.007-.299.064-.842.003a1.6 1.6 0 0 1-1.254-.946s-2.764-4.548-2.707-5.006c1.66-7.11 1.247-8.482 1.257-10.415.007-1.465 5.983-2.592 5.003-4.44-.205-.383-.235-.597-.235-.597s-6.006.18-6.143-5.063c-.124-4.788 3.93-7.288 8.18-11.125 4.115-3.714 2.307-8.327.641-9.268-2.01-1.138-3.182-.01-3.689.814 0 0 .082.223.135.445 1.299 5.074-1.31 6.661-1.227 6.721.079.062-3.293 3.033-3.044 4.732.019.141-1.515-3.222-1.265-6.442.292-3.738 3.153-5.404 4.154-6.193.83-1.457 3.048-2.755 5.523-1.449 2.928 1.546 4.464 7.256.135 11.447-2.082 2.014-8.14 5.59-8.02 10.221.103 3.956 4.558 3.022 4.56 2.89.032-3.188 4.03-9.12 10.284-11.121 3.43-1.101 2.359-4.576 2.783-4.339 1.957 1.094 6.693 3.675 10.071.458 1.44-1.37 4.014-.99 4.089 1.446.024.793 4.033.076 4.033.076s.85-1.778 1.98-1.446v7.003s-1.298.38-1.752-.381c-.725-1.216-.87-.57-1.467-.42 0 0 .163-1.99-3.918 1.362-2.9 2.38-5.424 2.18-8.031 2.667-2.233.416-4.335.349-5.327 3.84 0 0 5.476-.636 8.882.565 6.366 2.244 4.074 9.88 4.074 9.88-.15-.905-1.648-1.356-1.648-1.356.09-.02-2.31 7.654 4.002 9.551.021.007.43-.18.884-.27 1.424-.28 1.816 1.361 1.816 1.361s.216 1.266-.106 1.931c0 0-.189-.296-1.216-.492.015.448-.167.657-.358 1.027 0 0-.299-.526-1.317-.729.026.397-.142.507-.324.86 0 0-.287-.435-1.368-.595.026.397-.143.519-.327.874 0 0-.806-1.056-1.869-1.09-.434-.015-.214-.061-.214-.061"></path></svg> 