<?xml version="1.0" encoding="UTF-8"?> <svg xmlns="http://www.w3.org/2000/svg" width="1000" height="1037.58"><defs><clipPath id="a"><path d="M43.02 113.954h40.609v42.137H43.02z"></path></clipPath></defs><g clip-path="url(#a)" transform="matrix(24.60058 0 0 -24.60058 -1057.817 3840.428)"><path d="M0 0a3.3 3.3 0 0 0-1.236-.229c-.558 0-1.067.14-1.495.559-.352.342-.583.92-.583 1.614 0 1.187.772 2.196 2.209 2.196.453 0 .825-.107.987-.189L-.219 3.7c-.22.113-.495.188-.903.188-1.162 0-1.88-.773-1.88-1.933 0-1.206.699-1.932 1.816-1.932.447 0 .728.065.887.153v1.513h-.981v.247H0z" style="fill:#707172;fill-opacity:1;fill-rule:nonzero;stroke:none" transform="translate(46.416 114.21)"></path><path d="M0 0c.006.425-.17 1.068-.898 1.068-.664 0-.947-.599-1.004-1.068zm-1.922-.24c0-.972.529-1.361 1.15-1.361.44 0 .665.09.836.173l.074-.237c-.111-.062-.422-.195-.949-.195-.865 0-1.404.636-1.404 1.531 0 1.016.575 1.65 1.354 1.65C.125 1.321.315.38.315-.056c0-.082 0-.131-.015-.184z" style="fill:#707172;fill-opacity:1;fill-rule:nonzero;stroke:none" transform="translate(49.288 115.822)"></path><path d="M0 0c0 .283-.005.491-.025.733h.283L.277.2h.014c.193.35.482.602.978.602.414 0 .734-.279.867-.66h.013c.08.179.194.318.307.412.195.159.395.248.716.248.295 0 .986-.164.986-1.321v-1.798h-.303v1.772C3.855.142 3.593.55 3.072.55c-.378 0-.672-.287-.791-.603-.025-.092-.052-.19-.052-.306v-1.958h-.301v1.913c0 .546-.257.954-.746.954C.778.55.46.218.346-.138a1 1 0 0 1-.045-.299v-1.88H0z" style="fill:#707172;fill-opacity:1;fill-rule:nonzero;stroke:none" transform="translate(50.3 116.34)"></path><path d="M0 0c.007.425-.169 1.068-.895 1.068-.668 0-.95-.599-1.005-1.068zm-1.919-.24c0-.972.527-1.361 1.148-1.361.439 0 .665.09.836.173l.074-.237c-.111-.062-.42-.195-.947-.195-.866 0-1.407.636-1.407 1.531 0 1.016.578 1.65 1.356 1.65C.127 1.321.316.38.316-.056c0-.082 0-.131-.012-.184z" style="fill:#707172;fill-opacity:1;fill-rule:nonzero;stroke:none" transform="translate(57.397 115.822)"></path><path d="M0 0c.006.425-.168 1.068-.897 1.068-.667 0-.949-.599-1.005-1.068zm-1.919-.24c0-.972.528-1.361 1.146-1.361.441 0 .664.09.836.173l.076-.237c-.112-.062-.421-.195-.947-.195-.87 0-1.409.636-1.409 1.531 0 1.016.579 1.65 1.357 1.65C.126 1.321.316.38.316-.056c0-.082 0-.131-.015-.184z" style="fill:#707172;fill-opacity:1;fill-rule:nonzero;stroke:none" transform="translate(60.464 115.822)"></path><path d="M0 0c0 .283-.006.491-.023.733h.281L.277.186h.011C.451.53.836.802 1.327.802 1.616.802 2.38.656 2.38-.487v-1.83h-.299v1.806C2.081.046 1.865.55 1.244.55.825.55.459.243.34-.156a1.2 1.2 0 0 1-.036-.266v-1.895H0z" style="fill:#707172;fill-opacity:1;fill-rule:nonzero;stroke:none" transform="translate(61.476 116.34)"></path><path d="M0 0v-.673h.862v-.246H0v-1.982c0-.39.118-.631.441-.631.156 0 .269.019.344.045l.038-.229a1.2 1.2 0 0 0-.42-.068c-.222 0-.403.068-.517.208-.137.159-.189.42-.189.732v1.925h-.506v.246h.506v.559z" style="fill:#707172;fill-opacity:1;fill-rule:nonzero;stroke:none" transform="translate(65.126 117.746)"></path><path d="M0 0c.005.425-.17 1.068-.901 1.068-.667 0-.947-.599-1.003-1.068zm-1.924-.24c0-.972.526-1.361 1.15-1.361.438 0 .665.09.836.173l.073-.237c-.112-.062-.421-.195-.947-.195-.867 0-1.406.636-1.406 1.531 0 1.016.577 1.65 1.356 1.65C.124 1.321.312.38.312-.056c0-.082 0-.131-.013-.184z" style="fill:#707172;fill-opacity:1;fill-rule:nonzero;stroke:none" transform="translate(68.475 115.822)"></path><path d="m0 0 2.158 3.183V3.2H.186v.649h2.977v-.457L1.029.236V.217h2.164v-.649H0z" style="fill:#707172;fill-opacity:1;fill-rule:nonzero;stroke:none" transform="translate(70.647 114.455)"></path><path d="M0 0c.008.286-.118.754-.633.754-.477 0-.679-.439-.71-.754zm-1.343-.547c.019-.559.445-.799.942-.799.358 0 .61.057.847.139l.114-.535a2.8 2.8 0 0 0-1.068-.195c-.993 0-1.574.615-1.574 1.562 0 .858.511 1.665 1.492 1.665C.403 1.29.73.465.73-.215c0-.148-.013-.262-.026-.332z" style="fill:#707172;fill-opacity:1;fill-rule:nonzero;stroke:none" transform="translate(76.303 115.898)"></path><path d="M77.658 117.116h.771v-3.093h-.771zm.824.865c0-.23-.17-.419-.441-.419a.41.41 0 0 0-.425.419c0 .242.173.425.432.425.264 0 .427-.183.434-.425" style="fill:#707172;fill-opacity:1;fill-rule:nonzero;stroke:none"></path><path d="M0 0c.17-.109.502-.228.777-.228.341 0 .493.146.493.348 0 .21-.13.31-.505.452-.595.203-.843.533-.843.901 0 .548.449.967 1.16.967.337 0 .631-.083.814-.186l-.156-.545a1.34 1.34 0 0 1-.648.179c-.275 0-.428-.141-.428-.332 0-.196.145-.285.531-.433.564-.196.816-.482.82-.939 0-.565-.433-.971-1.242-.971-.373 0-.706.088-.929.215z" style="fill:#707172;fill-opacity:1;fill-rule:nonzero;stroke:none" transform="translate(79.198 114.748)"></path><path d="M0 0v-.794h.733v-.582H0v-1.366c0-.382.098-.57.396-.57.137 0 .213.004.302.029l.013-.591a1.8 1.8 0 0 0-.562-.081c-.287 0-.52.095-.664.255-.169.176-.245.463-.245.869v1.455h-.434v.582h.434v.578z" style="fill:#707172;fill-opacity:1;fill-rule:nonzero;stroke:none" transform="translate(82.749 117.91)"></path><path d="M0 0c2.145.049 5.532.257 9.271.336l3.469 2.925C7.447 3.384 2.772 3.5 0 3.57z" style="fill:#91cdc0;fill-opacity:1;fill-rule:nonzero;stroke:none" transform="translate(43.02 129.317)"></path><path d="M0 0c3.022.069 8.174.183 13.911.299l3.391 2.859C10.212 3.315 3.549 3.48 0 3.57z" style="fill:#91cdc0;fill-opacity:1;fill-rule:nonzero;stroke:none" transform="translate(43.02 133.268)"></path><path d="M0 0c3.847.087 11.142.248 18.707.393l3.161 2.667c-8.674.179-17.562.401-21.868.51z" style="fill:#91cdc0;fill-opacity:1;fill-rule:nonzero;stroke:none" transform="translate(43.02 137.219)"></path><path d="M0 0c1.152.026 2.908.116 4.592.152l3.426 2.815c-3.365.081-6.076.288-8.018.338z" style="fill:#91cdc0;fill-opacity:1;fill-rule:nonzero;stroke:none" transform="translate(43.02 125.632)"></path><path d="M0 0c4.657.106 14.369.32 23.496.482l2.948 2.488c-9.948.188-21.374.471-26.444.6z" style="fill:#91cdc0;fill-opacity:1;fill-rule:nonzero;stroke:none" transform="translate(43.02 141.169)"></path><path d="M0 0h-40.609v-3.072h36.994L0-.005z" style="fill:#91cdc0;fill-opacity:1;fill-rule:nonzero;stroke:none" transform="translate(83.629 156.092)"></path><path d="M0 0c5.487.124 17.983.398 28.276.564l3.549 3.006H0z" style="fill:#91cdc0;fill-opacity:1;fill-rule:nonzero;stroke:none" transform="translate(43.02 145.12)"></path><path d="m0 0 3.792 3.072C2.5 3.211.795 3.352 0 3.418z" style="fill:#91cdc0;fill-opacity:1;fill-rule:nonzero;stroke:none" transform="translate(43.02 121.833)"></path><path d="M0 0v3.464c-3.587-.268-7.708-1.46-11.98-3.172C-7.001.176-2.639.067 0 0" style="fill:#91cdc0;fill-opacity:1;fill-rule:nonzero;stroke:none" transform="translate(83.629 137.136)"></path><path d="M0 0c8.112-.172 16.138-.371 20.161-.473v3.57c-3.093-.07-8.416-.189-14.316-.307A106 106 0 0 1 0 0" style="fill:#91cdc0;fill-opacity:1;fill-rule:nonzero;stroke:none" transform="translate(63.468 133.659)"></path><path d="M0 0c10.127-.169 22.082-.381 27.262-.513v3.569c-4.517-.102-13.786-.306-22.665-.467A158 158 0 0 1 0 0" style="fill:#91cdc0;fill-opacity:1;fill-rule:nonzero;stroke:none" transform="translate(56.366 129.749)"></path><path d="M0 0c10.978-.036 27.206-.469 33.53-.631V2.94c-5.751-.13-19.204-.426-29.749-.588A205 205 0 0 1 0 0" style="fill:#91cdc0;fill-opacity:1;fill-rule:nonzero;stroke:none" transform="translate(50.099 125.915)"></path><path d="M0 0a225 225 0 0 1-4.265-2.852h39.704V.22C28.459.062 10.622-.408 0 0" style="fill:#91cdc0;fill-opacity:1;fill-rule:nonzero;stroke:none" transform="translate(48.19 124.685)"></path><path d="m0 0-.007-.005z" style="fill:#91cdc0;fill-opacity:1;fill-rule:nonzero;stroke:none" transform="translate(46.416 124.764)"></path></g></svg> 