<?xml version="1.0" encoding="UTF-8"?> <svg xmlns="http://www.w3.org/2000/svg" width="333" height="68" viewBox="0 0 333 68"><g fill="#1A1A1A" fill-rule="evenodd"><path d="M167.028 44.887c-1.674 2.458-4.02 3.854-7.038 3.987-.856.038-1.715.006-2.712.006V32.097c2.734-.175 5.362-.182 7.725 1.382 3.57 2.363 4.55 7.694 2.025 11.408m.004-15.17c-1.764-.78-4.366-1.337-6.278-1.392-3.186-.092-5.615-.021-8.797-.018.046.411.123.824.124 1.236.008 7.268.008 21.802.008 21.802s.041.827.064 1.257c3.08 0 6.035.115 8.976-.031 3.051-.152 5.799-1.285 8.226-3.175 6.831-5.319 5.74-16.114-2.323-19.679M295.62 44.698c0 1.114-.018 2.228.01 3.342.01.455-.16.736-.543.957-.952.548-1.946.918-3.065.878-1.462-.053-2.591-.793-3.027-2.175-.59-1.872-.558-3.769.208-5.592.656-1.558 1.94-2.272 3.633-2.09.675.071 1.342.23 2.008.37.57.121.82.452.79 1.075-.049 1.076-.013 2.156-.013 3.235m-.025-6.757c-1.515-.644-2.92-.862-4.369-.855-3.09.015-5.282 1.477-6.6 4.204-1.131 2.338-1.178 4.8-.356 7.242.67 1.989 2.03 3.401 4.045 4.036 2.215.698 4.397.57 6.452-.627.24-.14.49-.26.748-.397l.373 1.032h4.172v-24.35c-1.523.093-2.964.206-4.424.496-.046 3.086.02 6.078-.041 9.22m-107.705.835c0 2.878-.035 5.758.022 8.635.017.852-.303 1.362-1.008 1.704a5 5 0 0 1-1 .385c-1.921.467-3.1-.432-3.162-2.392-.008-.252-.003-.504-.003-.756v-8.874h-4.44l-.075.909s-.005 6.548.001 9.823c.001.358.039.719.092 1.073.306 2.045 1.65 3.343 3.71 3.612 1.782.231 3.43-.144 4.96-1.075.286-.173.58-.333.947-.545l.233 1.29h4.177V37.42l-4.454.032zm22.509-1.372c-.706.007-1.413.024-2.15.037-.022.408-.052.69-.053.973-.003 3.058-.02 6.116.012 9.173.007.66-.202 1.103-.768 1.4-.223.118-.435.26-.666.355-2.132.875-3.672-.136-3.679-2.42-.007-2.77.001-5.54-.005-8.31 0-.38-.042-.76-.065-1.147h-4.394c-.02.441-.053.826-.053 1.21q-.006 4.695 0 9.39c0 .36.005.72.042 1.077.212 2.026 1.57 3.438 3.585 3.735 1.815.268 3.504-.088 5.072-1.037.293-.177.598-.335.977-.546l.24 1.283h4.075c.213-1.178.177-14.267-.055-15.174-.687 0-1.401-.005-2.115.001m102.63 2.686c1.609-.007 2.51.965 2.656 2.97h-5.287c.099-1.885 1.076-2.962 2.63-2.97m2.916 9.89c-1.231.16-2.446.036-3.582-.51-1.479-.713-2.232-2.114-1.977-3.746h10.286c-.088-.881-.114-1.6-.239-2.299-.416-2.332-1.43-4.298-3.597-5.48-3.477-1.895-9.084-.827-10.871 4.116-.538 1.486-.631 3.006-.405 4.57.438 3.04 2.423 5.305 5.397 6.043 1.993.494 4 .323 6.002.035.994-.143 1.955-.399 2.879-.974l-.844-2.304c-1.084.2-2.06.42-3.049.55M271.663 40.1c1.786-.158 2.822.837 2.975 2.987h-5.207c-.198-1.498.835-2.862 2.232-2.986m7.97 5.61c-.086-.823-.118-1.533-.239-2.227-.408-2.33-1.4-4.301-3.551-5.505-3.445-1.928-9.079-.893-10.902 4.01-.562 1.514-.672 3.066-.427 4.667.47 3.065 2.413 5.273 5.408 6.022 1.955.488 3.926.32 5.89.05 1.026-.14 2.028-.392 2.976-.998l-.872-2.364c-.535.14-.977.267-1.425.368-1.6.361-3.203.486-4.781-.086-1.694-.614-2.607-2.085-2.406-3.937zm-21.816 4.429c-1.8-.275-2.352-.917-2.36-2.72-.012-2.122-.005-4.244 0-6.366 0-.279.036-.557.063-.94h3.984v-2.647c-1.364-.177-2.693.08-4.011-.17-.08-2.08-.155-4.074-.231-6.097h-2.653l-1.72 6.217h-2.375c.005.949-.19 1.783.15 2.7h2.263v1.256c0 2.482-.02 4.963.008 7.444.023 2.018 1.033 3.315 2.978 3.847.584.16 1.2.25 1.805.277 1.537.065 3.072.032 4.614-.346l-.206-2.228c-.821-.079-1.57-.115-2.31-.228m-14.619-5.574c-.822-.623-1.794-1.049-2.703-1.555-.564-.314-1.158-.58-1.704-.922-.474-.297-.848-.721-.672-1.343.173-.612.715-.809 1.264-.827a8.7 8.7 0 0 1 1.924.14c.697.136 1.37.396 2.134.626l1.08-2.477c-.202-.126-.312-.214-.436-.27-1.934-.856-3.973-1.063-6.025-.729-1.98.323-3.475 1.384-3.971 3.463-.48 2.012.245 3.72 2.142 4.991.742.498 1.578.854 2.362 1.292.563.315 1.133.625 1.658.998.433.306.694.763.51 1.315-.178.536-.632.805-1.162.82-.678.019-1.378.026-2.035-.118-1.044-.23-2.06-.59-3.171-.92l-1.09 2.568c2.153 1.107 4.31 1.49 6.58 1.29 1.216-.107 2.292-.577 3.267-1.298 1.95-1.443 3.155-4.687.048-7.044m-112.96-7.112v1.288l.131 13.343c-.046 2.473-.97 4.774-2.827 6.552-.07.067-.1.174-.112.197.66.71 1.286 1.387 1.945 2.098 3.18-2.11 5.41-4.67 5.369-8.703l.003-14.024s-.06-.475-.099-.751zm-69.616 1.139v-1.177c-1.557-.004-3.001-.05-4.508.036v1.324s.034 8.56-.013 12.839c-.029 2.664-.718 5.12-2.716 7.05-.066.063-.116.275-.116.275l.202-.16 1.748 2.152c3.47-2.228 5.54-5.061 5.43-9.285-.116-4.348-.027-8.702-.027-13.054m162.82.915-.267-2.055h-4.134s.08 15.16 0 15.125 4.446 0 4.446 0v-1.208s-.007-5.539.008-8.309c.001-.342-.008-.816.195-1.006 1.05-.98 2.235-1.715 3.78-1.406.38.076.754.19 1.2.305l1.544-3.034c-.98-.663-1.543-.82-2.61-.83-1.792-.02-2.885 1.221-4.162 2.418M45.396 37.453v15.125h4.31l-.043-15.125zm74.204-.027.08 15.148h4.157l-.056-15.164zm-5.69-16.59c-.775-.333-2.374-.013-2.92.626a.97.97 0 0 0-.2.58c-.014 2.008-.009 4.016-.009 6.135h3.968c0-2.094.02-4.132-.014-6.17-.009-.52-.305-.948-.825-1.171m-53.02-.11c-.453-.011-.924.09-1.36.224-.607.186-.88.594-.86 1.29.052 1.72.015 3.445.02 5.168 0 .241.039.482.063.772h3.587c0-2.094.027-4.067-.012-6.038-.017-.884-.553-1.391-1.439-1.416m-5.509 6.875q.008-2.47-.002-4.943a3.3 3.3 0 0 0-.09-.743c-.186-.78-.625-1.203-1.432-1.182-.549.015-1.118.182-1.628.399-.228.096-.468.479-.472.735-.03 2.039-.007 4.078.007 6.117 0 .055.077.11.136.188h3.42c.025-.228.06-.4.06-.57m-7.797 2.682c-1.17.008-2.248 1.085-2.283 2.28-.035 1.24 1.043 2.365 2.28 2.377 1.228.012 2.363-1.105 2.36-2.322-.004-1.212-1.145-2.344-2.357-2.335m74.134 0c-1.161.01-2.253 1.096-2.293 2.281-.04 1.22 1.064 2.365 2.291 2.376 1.221.012 2.369-1.115 2.364-2.321-.005-1.201-1.161-2.345-2.362-2.336m10.814 0c-1.212-.023-2.335 1.095-2.343 2.332-.006 1.193 1.033 2.276 2.23 2.323 1.224.048 2.382-1.039 2.413-2.264.03-1.208-1.086-2.367-2.3-2.39m-74.148-.001c-1.219-.014-2.313 1.095-2.314 2.347 0 1.205 1.03 2.273 2.23 2.308 1.236.037 2.356-1.04 2.37-2.278.013-1.245-1.059-2.361-2.286-2.377m19.685-9.844c-1.188-.003-1.824.708-1.874 2.138h3.743c-.092-1.486-.67-2.136-1.87-2.139m66.277-.001c-1.13.019-1.731.69-1.828 2.117h3.77c-.19-1.552-.741-2.136-1.942-2.117m-49.103.001c-1.18-.01-1.807.67-1.922 2.13h3.78c-.15-1.528-.694-2.12-1.859-2.13m-59.103-.001c-1.19-.01-1.777.619-1.935 2.108h3.793c-.181-1.53-.697-2.097-1.858-2.108m-17.387-.403c-1.03-.027-1.773.675-1.816 1.713-.043 1.06.63 1.797 1.677 1.838 1.07.042 1.775-.623 1.797-1.697.021-1.08-.647-1.828-1.658-1.854"></path><path d="M105.886 40.002c1.29.052 2.273.706 2.79 1.888.896 2.046.88 4.13-.095 6.14-.705 1.45-2.327 2.133-3.915 1.76-.449-.104-.872-.32-1.304-.488-.8-.312-1.087-.853-1.058-1.746.072-2.255.023-4.513.023-6.82 1.197-.641 2.373-.78 3.56-.734M36.763 27.577c.919.066 1.856-.096 2.783-.178.277-.024.549-.126.87-.203l.4.997c-.45.15-.84.338-1.249.403-.766.122-1.001.26-1.001.26L33.617 42.67c-.156.437-.329.869-.503 1.326-.483-.567-4.705-13.826-5.014-15.722h3.784c-.164-.328-.25-.544-.372-.736-1.118-1.765-1.255-3.66-.63-5.598.76-2.353 3.139-3.912 5.594-3.764 2.604.156 4.394 1.7 4.957 4.316.133.62.164 1.26.261 2.04h-7.537c-.085 1.756.894 2.919 2.606 3.044m-11.715-7.518h-2.039c.062.22.083.352.134.47.638 1.465.308 2.862-.932 3.847-.904.718-1.958 1.042-3.1 1.087-.538.022-1.08-.013-1.618.02-.316.021-.678.051-.925.217-.227.154-.434.49-.45.756-.013.219.22.57.43.659.384.164.831.231 1.255.243 1.114.033 2.232-.031 3.343.032.738.042 1.465.24 2.442.41l-.733.558c.607 1.878 1.197 3.796 1.853 5.69.272.787.278 1.486-.028 2.278-.92 2.378-1.763 4.786-2.637 7.182-.122.334-.253.665-.472 1.238-.567-1.21-.8-2.31-1.152-3.364-.364-1.09-.701-2.19-1.05-3.285q-.523-1.642-1.043-3.287c-.346-1.096-.686-2.193-1.033-3.289-.346-1.091-.696-2.18-1.07-3.354H13.55c-.54-1.54-.032-2.699 1.633-3.89-.043-.083-.067-.199-.138-.25-1.494-1.085-1.456-3.455.26-4.859.91-.744 1.99-1.015 3.123-.986 2.117.053 4.233.18 6.35.28.064.003.127.054.269.12zM11 13.45v14.947l.185.016 7.96 24.423h3.19l4.377-11.951.219.033 3.9 11.916h3.192l8.994-24.575c1.831-.067 3.547.034 5.324-.068v-9.685h3.028l.353.936c2.295-1.454 4.505-1.965 6.603.095 1.474-.915 2.122-1.169 3.338-1.32 2.417-.3 3.991 1.045 4.018 3.463.02 1.763.005 3.526.005 5.29v1.172l1.226-.05v24.451h4.55c0-2.357 0-4.62.003-6.885 0-.022.039-.052.065-.066.03-.015.067-.016.153-.034.23.287.48.589.718.9 1.487 1.943 4.393 5.682 4.46 5.83s.186.266.186.266l5.514-.059-7.038-8.893 5.765-5.983-.116-.215-3.42-.013-.53-.03-4.878 4.954s-.66.818-.765.777.064-14.911.064-14.911h2.244c-.257-.402-.438-.667-.599-.942-1.68-2.882-.738-6.784 2.064-8.303 1.985-1.078 4.029-1.11 5.925.197 1.83 1.262 2.306 3.166 2.306 5.414H76.02c.032 1.365.533 2.296 1.687 2.77.455.187.98.308 1.466.29 1.063-.038 2.121-.183 3.248-.291l.407.843h8.166c-.12-.215-.175-.343-.254-.455-1.076-1.54-1.308-3.244-.954-5.047.589-2.99 3.44-4.884 6.56-4.374 2.794.458 4.72 3.183 4.304 6.255h-7.367c-.077 1.777.89 2.876 2.609 3.057 1.118.118 2.228.042 3.302-.339.092-.032.205-.004.393-.004l.238.89-1.938.678v23.76h4.165l.37-1.04c.257.143.474.257.683.38 3.8 2.246 8.444.777 10.238-3.26 1.006-2.264 1.093-4.609.356-6.957-.873-2.777-3.208-4.495-6.136-4.605-1.522-.057-3.017.095-4.47.58-.217.072-.457.076-.67.108V28.32c1.71-.229 3.36.073 5.05-.19V18.5h3.053l.245.739c1.11-.344 2.176-.81 3.288-.992 2.39-.39 4.009 1.03 4.04 3.43.024 1.835.003 3.67.009 5.506 0 .314.036.628.06.994h7.948c-.046-.94-.114-1.832-.128-2.724-.021-1.367 0-2.735-.01-4.103-.002-.275-.058-.548-.092-.853l-1.657-.144v-1.834l1.761-.184 1.225-4.388h1.989l.174 4.48h2.908v2.014h-2.924c0 2.058-.024 3.991.013 5.924.013.626.409 1.116 1.037 1.226.656.116 1.335-.07 2.127-.027.188.518.235.682.235.682s4.33-.01 5.95-.01h1.306s-.628-1.023-1.1-2.961c-1.038-4.268 2.62-7.818 6.857-6.95 2.657.543 4.618 3.569 3.938 6.179-2.434.113-4.902-.067-7.36.096.13 1.821 1 2.812 2.639 2.98.744.075 1.51.02 2.259-.047.483-.043.955-.214 1.409-.322l.577 1.067h2.67l-.076-14.754z"></path></g></svg> 