<?xml version="1.0" encoding="UTF-8"?> <svg xmlns="http://www.w3.org/2000/svg" width="512" height="122" viewBox="0 0 512 122" xml:space="preserve"><path fill="#003B5D" d="M20.415 37.021a29 29 0 0 1 2.455-.259 37 37 0 0 1 2.452-.085q2.371-.001 4.741.344l5.082 41.537a27 27 0 0 1-4.216.348q-2.025 0-4.334-.348l-.751-8.375H13.19l-3.696 8.375q-2.081.348-4.331.348c-1.466 0-2.851-.115-4.163-.348zm4.794 26.23-1.5-16.638-7.396 16.638zM45.08 47.536c.425-2.042.722-3.819.894-5.345.173-1.518.264-2.798.264-3.836 0-.424-.011-.786-.028-1.069a36 36 0 0 0-.087-.958q.983-.172 2.251-.26a34 34 0 0 1 2.196-.084q1.673.001 3.699.344c.189.578.288 1.312.288 2.195 0 .811-.077 1.733-.232 2.774a91 91 0 0 1-.578 3.409L49.296 67.93q-.17.987-.172 1.617.001.928.26 1.445.263.521.663.811c.27.196.578.315.929.378a6.5 6.5 0 0 0 1.042.081c.151 0 .442-.025.863-.081.424-.063.81-.147 1.154-.263.193.652.354 1.368.491 2.136a13.5 13.5 0 0 1 .088 4.107q-.869.34-2.251.544c-.922.133-1.946.207-3.065.207q-3.926-.001-6.179-1.939-2.251-1.936-2.251-6.092c0-.54.035-1.108.116-1.704.073-.597.172-1.224.288-1.88zm15.887 13.982q.632-3.64.954-6.442.317-2.799.319-4.363v-1.069q0-.431-.06-.951 1.906-.348 3.812-.35 1.615.002 3.64.35c.077.31.151.674.232 1.098.074.424.116 1.059.116 1.907q-.001.516-.028.979c-.021.312-.07.694-.144 1.158q1.325-2.483 4.043-4.16 2.713-1.674 6.18-1.676c2.697 0 4.766.922 6.211 2.774q2.167 2.773 2.167 8.027c0 2.388-.369 4.794-1.098 7.225a19 19 0 0 1-3.497 6.586q-2.398 2.945-6.21 4.794c-2.539 1.231-5.643 1.848-9.301 1.848q-.983.001-1.473-.056c-.33-.042-.585-.082-.782-.116L63.74 92.197c-.772.151-1.501.246-2.199.284-.691.043-1.347.06-1.96.06-.656 0-1.312-.017-1.964-.06a14.6 14.6 0 0 1-2.08-.284zm6.299 10.63c.309.115.698.192 1.182.228.484.042.975.059 1.473.059q2.544.001 4.362-1.182a10.2 10.2 0 0 0 3.006-3.009 13 13 0 0 0 1.729-4.008q.554-2.2.555-4.278 0-2.024-.843-3.494-.837-1.477-2.858-1.476-2.657 0-4.563 2.255c-1.273 1.501-2.195 3.988-2.773 7.453zm29.578-24.612q1.037-6.064 1.038-9.182c0-.424-.011-.786-.027-1.069a25 25 0 0 0-.088-.958 22 22 0 0 1 2.255-.26 34 34 0 0 1 2.192-.084c1.119 0 2.35.116 3.701.344.189.578.288 1.312.288 2.195 0 1.698-.228 3.756-.694 6.183l-1.501 8.087q1.505-2.02 3.987-3.377a10.8 10.8 0 0 1 5.258-1.357c2.311 0 4.109.582 5.4 1.76q1.936 1.761 1.936 5.864c0 .575-.038 1.196-.116 1.849a52 52 0 0 1-.291 2.08l-3.35 18.948a27 27 0 0 1-4.215.351q-2.025-.001-3.987-.351l3.237-18.313q.227-1.153.228-2.196 0-1.731-.75-2.423-.751-.694-2.136-.694-.81-.001-1.82.403c-.677.27-1.357.838-2.052 1.708-.69.862-1.368 2.09-2.02 3.665-.66 1.581-1.213 3.664-1.677 6.239L99.5 78.559q-1.099.174-2.164.232-1.072.056-1.997.056-.981 0-1.932-.056a22 22 0 0 1-2.051-.232zm35.874 19.702q.347 2.771 1.851 4.128 1.5 1.362 4.388 1.361 2.308 0 4.075-.495a33 33 0 0 0 3.725-1.297c.614.771 1.032 1.704 1.242 2.802q.32 1.646.32 3.497-.985.465-2.285.834c-.866.253-1.763.459-2.685.635q-1.388.264-2.771.407c-.93.098-1.754.144-2.487.144q-3.521 0-6.035-.866c-1.673-.583-3.065-1.396-4.16-2.455-1.097-1.059-1.907-2.353-2.426-3.872-.523-1.522-.778-3.206-.778-5.053 0-2.347.402-4.661 1.214-6.934a19.9 19.9 0 0 1 3.436-6.095c1.48-1.792 3.294-3.234 5.43-4.335q3.204-1.646 7.192-1.645 1.906 0 3.552.463a8.1 8.1 0 0 1 2.862 1.417 6.9 6.9 0 0 1 1.908 2.336q.688 1.392.687 3.236.001 2.604-1.214 4.507-1.211 1.907-3.232 3.236c-1.35.884-2.879 1.61-4.591 2.165a32.5 32.5 0 0 1-5.345 1.245zm3.293-5.895q2.194-.344 3.584-.895c.922-.364 1.651-.771 2.196-1.216.533-.443.901-.895 1.094-1.354q.29-.695.291-1.389c0-.729-.245-1.325-.726-1.789q-.719-.694-1.933-.694c-.999 0-1.918.225-2.742.666a7.4 7.4 0 0 0-2.171 1.764 11.5 11.5 0 0 0-1.585 2.508q-.662 1.418-1.01 2.865zm20.393.175c.424-2.43.741-4.573.954-6.442.211-1.865.319-3.325.319-4.363v-1.066c0-.291-.024-.61-.06-.954a21.3 21.3 0 0 1 3.813-.347q.865 0 1.731.085c.579.063 1.192.143 1.853.262q.11.464.228 1.098c.08.424.116 1.059.116 1.907 0 .344-.01.695-.028 1.039s-.07.771-.144 1.27a12.3 12.3 0 0 1 1.732-2.308 11.4 11.4 0 0 1 2.368-1.907 12.4 12.4 0 0 1 2.862-1.272 10.7 10.7 0 0 1 3.089-.46q3.466 0 5.401 1.757 1.938 1.765 1.936 5.867c0 .575-.039 1.196-.116 1.849a50 50 0 0 1-.288 2.08l-3.349 18.953a27.5 27.5 0 0 1-4.219.347c-1.346 0-2.675-.119-3.987-.347l3.237-18.318a11 11 0 0 0 .231-2.196q0-1.73-.753-2.427c-.498-.458-1.213-.69-2.136-.69-.541 0-1.146.137-1.82.403-.677.27-1.357.838-2.052 1.704-.694.871-1.368 2.091-2.021 3.669q-.986 2.372-1.676 6.239l-2.136 11.616c-1.5.228-2.908.347-4.219.347-1.347 0-2.676-.119-3.987-.347zm68.227 4.1q-.636 3.642-.926 6.442-.285 2.803-.287 4.359v1.07q-.002.433.059.958a21.4 21.4 0 0 1-3.752.344q-1.625-.002-3.584-.344c-.081-.31-.155-.677-.232-1.098q-.115-.637-.115-1.908V74.34c0-.378.039-.824.115-1.325a15.2 15.2 0 0 1-4.271 4.447q-2.603 1.79-6.071 1.792c-2.54 0-4.451-.806-5.72-2.427q-1.904-2.43-1.904-6.411-.002-4.334 1.301-8.378 1.294-4.046 3.872-7.165c1.711-2.08 3.84-3.742 6.378-4.994q3.815-1.879 8.897-1.88 2.543 0 4.739.347c1.462.228 2.907.558 4.331.982zm-5.947-10.745a7 7 0 0 0-1.014-.144 15 15 0 0 0-.954-.028q-2.772 0-4.706 1.386a11.7 11.7 0 0 0-3.206 3.468 15.3 15.3 0 0 0-1.848 4.479q-.58 2.396-.582 4.359c0 2.852.946 4.271 2.833 4.271q2.773.001 5.141-3.374c1.578-2.251 2.735-5.425 3.468-9.507zm38.24 10.745a96 96 0 0 0-.925 6.442c-.189 1.869-.288 3.321-.288 4.359v1.07q-.002.433.06.958a21.4 21.4 0 0 1-3.753.344q-1.623-.002-3.584-.344c-.081-.31-.154-.677-.231-1.098q-.117-.637-.116-1.908V74.34c0-.378.038-.824.116-1.325a15.2 15.2 0 0 1-4.272 4.447q-2.604 1.79-6.07 1.792c-2.54 0-4.448-.806-5.72-2.427q-1.906-2.43-1.905-6.411-.002-4.334 1.302-8.378c.866-2.698 2.153-5.085 3.872-7.165 1.71-2.08 3.839-3.742 6.379-4.994q3.815-1.879 8.897-1.88 2.543 0 4.738.347c1.462.228 2.908.558 4.332.982zm-5.948-10.745a7 7 0 0 0-1.013-.144 15 15 0 0 0-.951-.028q-2.776 0-4.71 1.386-1.936 1.387-3.205 3.468a15.3 15.3 0 0 0-1.849 4.479q-.58 2.396-.582 4.359c0 2.852.948 4.271 2.833 4.271q2.774.001 5.141-3.374c1.58-2.251 2.736-5.425 3.47-9.507zm14.73 6.645c.424-2.43.739-4.573.951-6.442.213-1.865.322-3.325.322-4.363v-1.066c0-.291-.025-.61-.06-.954a21.3 21.3 0 0 1 3.812-.347q.864 0 1.732.085c.579.063 1.193.143 1.852.262q.112.464.228 1.098c.081.424.115 1.059.115 1.907a13 13 0 0 1-.171 2.309 12.2 12.2 0 0 1 1.729-2.308 11.6 11.6 0 0 1 2.371-1.907 12.4 12.4 0 0 1 2.861-1.272 10.7 10.7 0 0 1 3.09-.46q3.462 0 5.405 1.757 1.934 1.765 1.933 5.867c0 .575-.04 1.196-.116 1.849a53 53 0 0 1-.288 2.08l-3.349 18.953a27.5 27.5 0 0 1-4.219.347c-1.347 0-2.676-.119-3.984-.347l3.234-18.318q.231-1.153.231-2.196c0-1.153-.256-1.963-.754-2.427-.498-.458-1.214-.69-2.136-.69q-.81.002-1.82.403-1.012.405-2.051 1.704c-.694.871-1.368 2.091-2.023 3.669q-.981 2.372-1.673 6.239l-2.139 11.616c-1.498.228-2.904.347-4.216.347-1.35 0-2.675-.119-3.987-.347zm68.458 4.1q-.638 3.642-.923 6.442-.29 2.803-.291 4.359v1.07q0 .433.06.958a21.4 21.4 0 0 1-3.756.344q-1.619-.002-3.584-.344c-.074-.31-.154-.677-.228-1.098q-.12-.637-.12-1.908 0-.52.032-1.209.027-.695.143-1.448a14.6 14.6 0 0 1-1.936 2.514 13.4 13.4 0 0 1-2.479 2.052 13.3 13.3 0 0 1-2.92 1.385 10.4 10.4 0 0 1-3.294.519c-2.539 0-4.447-.806-5.72-2.427q-1.904-2.43-1.904-6.411-.001-4.334 1.301-8.378c.867-2.698 2.153-5.085 3.869-7.165 1.711-2.08 3.843-3.742 6.386-4.994 2.542-1.252 5.503-1.88 8.894-1.88.27 0 .527.007.779.031q.377.027.666.028.637-3.407.897-5.78.26-2.364.261-3.928 0-.636-.031-1.066c-.019-.292-.05-.607-.085-.958q.977-.17 2.255-.256 1.264-.089 2.192-.088c1.118 0 2.346.116 3.696.344q.29.869.291 2.195c0 1.698-.236 3.756-.694 6.18zm-6.18-10.745a7 7 0 0 0-1.014-.144 15 15 0 0 0-.95-.028c-1.852 0-3.419.463-4.71 1.386a11.8 11.8 0 0 0-3.206 3.468 15.4 15.4 0 0 0-1.848 4.479q-.578 2.396-.578 4.359c0 2.852.943 4.271 2.833 4.271q2.767.001 5.138-3.374c1.582-2.251 2.732-5.425 3.465-9.507zm20.102 12.365c.228 1.848.849 3.223 1.848 4.128q1.504 1.362 4.391 1.361c1.541 0 2.897-.165 4.076-.495a33 33 0 0 0 3.725-1.297c.613.771 1.031 1.704 1.241 2.802q.316 1.646.316 3.497c-.652.309-1.415.589-2.28.834-.866.253-1.764.459-2.687.635q-1.388.264-2.771.407c-.928.098-1.752.144-2.486.144q-3.522 0-6.035-.866c-1.678-.583-3.066-1.396-4.16-2.455-1.101-1.059-1.908-2.353-2.427-3.872q-.783-2.283-.782-5.053c0-2.347.407-4.661 1.214-6.934.81-2.272 1.953-4.303 3.437-6.095s3.293-3.234 5.433-4.335q3.205-1.646 7.193-1.645 1.905 0 3.553.463a8.2 8.2 0 0 1 2.862 1.417 6.8 6.8 0 0 1 1.904 2.336q.69 1.392.691 3.236 0 2.604-1.21 4.507-1.215 1.907-3.241 3.236c-1.347.884-2.875 1.61-4.587 2.165a32.4 32.4 0 0 1-5.345 1.245zm3.293-5.895q2.195-.344 3.584-.895c.923-.364 1.652-.771 2.195-1.216q.805-.665 1.095-1.354a3.6 3.6 0 0 0 .287-1.389q-.001-1.093-.722-1.789-.718-.694-1.932-.694a5.76 5.76 0 0 0-2.747.666 7.4 7.4 0 0 0-2.167 1.764 11.4 11.4 0 0 0-1.584 2.508c-.443.946-.783 1.9-1.011 2.865zm20.394.175c.424-2.43.74-4.573.95-6.442.214-1.865.324-3.325.324-4.363v-1.066c0-.291-.025-.61-.06-.954a21.3 21.3 0 0 1 3.812-.347q.867 0 1.733.085c.579.063 1.192.143 1.852.262.073.31.154.674.228 1.098q.116.635.115 1.907c0 .344-.01.695-.027 1.039s-.07.771-.144 1.27a12.2 12.2 0 0 1 1.729-2.308 11.6 11.6 0 0 1 2.371-1.907 12.4 12.4 0 0 1 2.861-1.272 10.7 10.7 0 0 1 3.09-.46c2.307 0 4.11.585 5.4 1.757q1.937 1.765 1.937 5.867c0 .575-.039 1.196-.116 1.849a53 53 0 0 1-.288 2.08l-3.353 18.953c-1.463.228-2.869.347-4.215.347s-2.677-.119-3.987-.347l3.237-18.318q.228-1.153.227-2.196.001-1.73-.75-2.427-.752-.689-2.135-.69c-.54 0-1.147.137-1.821.403-.676.27-1.356.838-2.051 1.704-.694.871-1.368 2.091-2.021 3.669q-.984 2.372-1.676 6.239l-2.14 11.616c-1.497.228-2.903.347-4.216.347-1.35 0-2.675-.119-3.987-.347zm68.574-22.964a9.7 9.7 0 0 1 3.525 3.409q1.327 2.162 1.329 5.457c0 1.771-.262 3.374-.782 4.797q-.783 2.136-1.961 3.84c-.793 1.137-1.648 2.101-2.574 2.89-.927.785-1.811 1.434-2.658 1.936l-.691.404s.372 3.387 1.947 7.796c1.579 4.405 3.977 9.476 3.977 9.476-1.62.232-3.177.351-4.682.351-1.501 0-3.399-.105-4.707-.336 0 0-1.999-4.261-3.286-8.599-1.306-4.402-2.378-10.71-2.378-10.71l.981-.58c.58-.343 1.329-.757 2.256-1.241.922-.477 1.828-1.115 2.714-1.904a11.2 11.2 0 0 0 2.28-2.862q.958-1.672.958-4.043c0-1-.178-1.837-.522-2.514a4.56 4.56 0 0 0-1.414-1.646 5.8 5.8 0 0 0-2.055-.897 10.8 10.8 0 0 0-2.367-.256s-3.391.045-5.881 2.23l-1.684-6.66s3.233-2.819 8.75-2.725c5.417.086 8.925 2.387 8.925 2.387m12.015 16.378h-3.641q0-.174-.028-.348a2.3 2.3 0 0 1-.027-.403c0-1.003.09-1.936.287-2.803.194-.87.481-1.76.867-2.689h11.668l-5.257 29.874a27 27 0 0 1-4.155.343q-1.794 0-3.872-.343zm1.676-11.265c-.042-1.346.045-2.63.257-3.844q.319-1.82 1.014-3.84a15 15 0 0 1 2.195-.319 29 29 0 0 1 2.079-.088c.618 0 1.298.031 2.049.088q1.127.086 2.114.319a21 21 0 0 1-.351 3.872 25 25 0 0 1-1.041 3.812c-.69.113-1.413.193-2.164.228-.751.039-1.438.059-2.052.059a42 42 0 0 1-2.02-.059 15 15 0 0 1-2.08-.228m15.775 11.265h-3.644q0-.228-.028-.435a3 3 0 0 1-.029-.432c0-.887.109-1.771.316-2.658q.315-1.331.842-2.715h11.668l-5.896 33.511c-.652 3.696-2.136 6.358-4.444 7.997q-3.472 2.457-8.553 2.458c-1.767 0-3.469-.214-5.085-.639a4.4 4.4 0 0 1-.056-.663v-.606q0-2.6 1.209-4.795c.428.116.915.21 1.476.288.562.074 1.067.119 1.53.119a9.7 9.7 0 0 0 1.996-.207 4.4 4.4 0 0 0 1.76-.807q.811-.61 1.417-1.708c.407-.726.722-1.693.954-2.886zm1.729-11.44c-.074-1.231 0-2.455.231-3.665a22.3 22.3 0 0 1 1.042-3.671 20 20 0 0 1 2.279-.432 16 16 0 0 1 1.992-.147c.54 0 1.176.053 1.908.147.734.095 1.445.242 2.137.432a21.5 21.5 0 0 1-.288 3.493c-.193 1.174-.52 2.441-.981 3.787a16 16 0 0 1-2.312.403q-1.155.116-1.964.115c-.579 0-1.231-.031-1.964-.083a10.6 10.6 0 0 1-2.08-.379m13.288 18.026c.424-2.43.741-4.573.951-6.442.213-1.865.319-3.325.319-4.363v-1.066q-.001-.437-.057-.954a21.3 21.3 0 0 1 3.809-.347q.868 0 1.736.085c.579.063 1.192.143 1.848.262q.117.464.232 1.098.116.635.116 1.907a14.4 14.4 0 0 1-.173 2.309 12 12 0 0 1 1.733-2.308 11.5 11.5 0 0 1 2.367-1.907 12.4 12.4 0 0 1 2.862-1.272 10.7 10.7 0 0 1 3.089-.46q3.464 0 5.402 1.757c1.286 1.178 1.935 3.131 1.935 5.867 0 .575-.042 1.196-.116 1.849a60 60 0 0 1-.288 2.08l-3.353 18.953a27.5 27.5 0 0 1-4.218.347c-1.348 0-2.673-.119-3.984-.347l3.234-18.318c.153-.768.234-1.501.234-2.196 0-1.153-.255-1.963-.753-2.427-.498-.458-1.213-.69-2.136-.69q-.81.002-1.821.403-1.015.405-2.052 1.704c-.694.871-1.368 2.091-2.023 3.669q-.978 2.372-1.673 6.239l-2.139 11.616c-1.499.228-2.908.347-4.216.347a23 23 0 0 1-3.988-.347z"></path><path fill="#85BCE9" d="M466.096 120.672c-2.445 0-47.433-.849-55.401-56.544-6.211-43.407-23.143-53.287-23.315-53.377 0 0 .186-1.529 2.105-5.219 1.924-3.696 2.97-4.531 2.97-4.531.895.456 21.986 11.731 29.12 61.57 2.875 20.096 11.293 34.124 25.016 41.678 9.97 5.495 19.25 5.453 19.352 5.439 0 0 .509 1.529.596 5.447.092 3.917-.343 5.537-.343 5.537z"></path></svg> 