<?xml version="1.0" encoding="UTF-8"?> <svg xmlns="http://www.w3.org/2000/svg" class="site-branding__svg" width="905.141" height="254.674" viewBox="0 0 905.141 254.674" aria-label="Logo Gemeente Dronten"><g data-name="Group 2239"><path data-name="Path 1676" d="M121.421 82.416c15.549 0 15.549 16.464 15.549 16.464v28.931l24.995 14.429c14.257 8.23 6.484 21.7 6.484 21.7-7.78 13.466-22.029 5.237-22.029 5.237l-25.1-14.494-25.111 14.494s-14.253 8.23-22.025-5.237c0 0-7.772-13.466 6.476-21.7l25.211-14.554V98.875c0-16.464 15.553-16.464 15.553-16.464" fill="#7bb010"></path><path data-name="Path 1677" d="M121.421 0c15.549 0 15.549 16.452 15.549 16.452v28.935l24.995 14.433c14.257 8.23 6.484 21.7 6.484 21.7-7.78 13.47-22.029 5.236-22.029 5.236l-25.1-14.5-19.044 10.994-6.067 3.5s-14.253 8.234-22.025-5.236c0 0-7.772-13.466 6.476-21.7l25.211-14.558v-28.81c0-16.452 15.553-16.452 15.553-16.452" fill="#7bb010"></path><path data-name="Path 1678" d="M121.421 165.432c15.549 0 15.549 16.46 15.549 16.46v28.927l24.995 14.437c14.257 8.226 6.484 21.692 6.484 21.692-7.78 13.466-22.029 5.236-22.029 5.236l-25.1-14.493-25.111 14.493s-14.253 8.23-22.025-5.236c0 0-7.772-13.466 6.476-21.692l25.211-14.558v-28.806c0-16.46 15.553-16.46 15.553-16.46" fill="#7bb010"></path><path data-name="Path 1679" d="M49.358 41.551c15.549 0 15.549 16.456 15.549 16.456v28.932l25 14.437c14.253 8.23 6.48 21.7 6.48 21.7-7.78 13.466-22.029 5.233-22.029 5.233l-25.1-14.494-25.107 14.494s-14.258 8.23-22.033-5.238c0 0-7.776-13.466 6.476-21.7l25.215-14.558V58.007c0-16.456 15.549-16.456 15.549-16.456" fill="#7bb010"></path><path data-name="Path 1680" d="M49.358 124.812c15.549 0 15.549 16.46 15.549 16.46v28.927l25 14.433c14.253 8.234 6.48 21.7 6.48 21.7-7.78 13.466-22.029 5.236-22.029 5.236l-25.1-14.5-25.107 14.5s-14.257 8.23-22.029-5.236c0 0-7.776-13.466 6.476-21.7l25.215-14.546v-28.814c0-16.46 15.549-16.46 15.549-16.46" fill="#7bb010"></path><path data-name="Path 1681" d="M193.784 41.551c15.553 0 15.553 16.456 15.553 16.456v28.932l25 14.437c14.253 8.23 6.476 21.7 6.476 21.7-7.773 13.466-22.025 5.233-22.025 5.233l-25.107-14.494-25.1 14.494s-14.252 8.23-22.033-5.238c0 0-7.776-13.466 6.477-21.7l25.215-14.558V58.007c0-16.456 15.545-16.456 15.545-16.456" fill="#7bb010"></path><path data-name="Path 1682" d="M193.784 124.812c15.553 0 15.553 16.46 15.553 16.46v28.927l25 14.433c14.253 8.234 6.476 21.7 6.476 21.7-7.773 13.466-22.025 5.236-22.025 5.236l-25.107-14.5-25.1 14.5s-14.253 8.23-22.029-5.236c0 0-7.776-13.466 6.477-21.7l25.215-14.546v-28.814c0-16.46 15.545-16.46 15.545-16.46" fill="#7bb010"></path><path data-name="Path 1683" d="M313.391 189.049h32.181V109.07a12.2 12.2 0 0 1 12.444-12.475 12.356 12.356 0 0 1 12.445 12.564v92.531a11.82 11.82 0 0 1-3.687 8.912 13.33 13.33 0 0 1-8.779 3.647h-57.251a12.25 12.25 0 0 1-8.852-3.768 12.12 12.12 0 0 1-3.7-8.812v-62.512a12.4 12.4 0 0 1 3.64-8.876 13.13 13.13 0 0 1 8.876-3.6h22.447a12.225 12.225 0 0 1 12.406 12.568c0 8.671-6.786 12.471-12.323 12.471h-10Z" fill="#55127b"></path><path data-name="Path 1684" d="M406.861 151.621v50.193a12.277 12.277 0 0 1-12.576 12.383c-8.35 0-12.379-7.187-12.379-12.383V139.13a12.25 12.25 0 0 1 3.66-8.812 12.72 12.72 0 0 1 8.812-3.756c4.265 0 8.515 2.869 10.782 6.9 0 0 4.153-6.633 10.842-6.633h18.742c5.77 0 12.455 3.663 12.455 12.271s-7.668 12.519-12.5 12.519Z" fill="#55127b"></path><path data-name="Path 1685" d="M455.414 139.201v62.532a12.5 12.5 0 0 0 3.664 8.752 12.75 12.75 0 0 0 8.868 3.76h57.653a12.77 12.77 0 0 0 8.776-3.644 12.28 12.28 0 0 0 3.659-8.86v-62.656a11.95 11.95 0 0 0-3.672-8.808 12.3 12.3 0 0 0-8.812-3.611h-26.154a12.414 12.414 0 0 0-12.4 12.471c0 7.76 7.126 12.644 12.443 12.644h13.486v37.189h-32.39v-49.769a12.558 12.558 0 0 0-25.115 0" fill="#55127b"></path><path data-name="Path 1686" d="m607.258 151.621-31.6-.072v50.065c0 5.658-4.049 12.519-12.427 12.519s-12.459-7.568-12.459-12.411v-62.561a12.32 12.32 0 0 1 12.43-12.479 13.18 13.18 0 0 1 10.838 6.689s3.643-6.533 10.694-6.533h34.974a11.82 11.82 0 0 1 8.828 3.491 12.42 12.42 0 0 1 3.607 8.8v62.444c0 6.1-4.365 12.531-12.415 12.531a12.38 12.38 0 0 1-12.471-12.4Z" fill="#55127b"></path><path data-name="Path 1687" d="m880.264 151.621-31.611-.072v50.065c0 5.658-4.036 12.519-12.423 12.519s-12.466-7.568-12.466-12.411v-62.561a12.325 12.325 0 0 1 12.438-12.479 13.2 13.2 0 0 1 10.843 6.689s3.635-6.533 10.681-6.533h34.979a11.82 11.82 0 0 1 8.832 3.491 12.4 12.4 0 0 1 3.6 8.8v62.444c0 6.1-4.362 12.531-12.406 12.531a12.38 12.38 0 0 1-12.476-12.4Z" fill="#55127b"></path><path data-name="Path 1688" d="M667.8 126.738v-17.559c0-5.61 3.972-12.451 12.443-12.451a12.21 12.21 0 0 1 12.548 12.419v17.523h15.236c5.935 0 12.588 4.141 12.588 12.455s-6.769 12.387-12.548 12.387h-15.376v37.486h15.384c4.534 0 12.547 3.138 12.547 12.628s-7.852 12.567-12.515 12.567h-28.04a12.44 12.44 0 0 1-12.363-12.528V151.62h-15.071a12.575 12.575 0 0 1-12.568-12.491 12.22 12.22 0 0 1 12.492-12.4h15.244" fill="#55127b"></path><path data-name="Path 1689" d="M428.413 84.2c0 5.642-1.163 9.02-3.483 11.191-2.416 2.163-5.843 2.921-8.92 2.921a15.73 15.73 0 0 1-8.114-2.018l1.111-3.427a13.25 13.25 0 0 0 7.154 1.966c4.538 0 7.865-2.368 7.865-8.567v-2.668h-.1a8.65 8.65 0 0 1-7.76 4.081c-6.047 0-10.38-5.144-10.38-11.946 0-8.266 5.393-12.9 11.035-12.9a8.14 8.14 0 0 1 7.612 4.185h.1l.152-3.631h3.928c-.148 1.714-.2 3.68-.2 6.653Zm-4.438-11.239a6.2 6.2 0 0 0-.253-1.966 6.33 6.33 0 0 0-6.2-4.739c-4.233 0-7.254 3.579-7.254 9.273 0 4.739 2.468 8.771 7.206 8.771a6.374 6.374 0 0 0 6.147-4.586 7.3 7.3 0 0 0 .353-2.368Z" fill="#7bb010"></path><path data-name="Path 1690" d="M440.254 76.336c.1 6 3.88 8.467 8.314 8.467a16.9 16.9 0 0 0 6.757-1.208l.8 3.126a19.9 19.9 0 0 1-8.162 1.561c-7.459 0-12-4.988-12-12.3 0-7.407 4.386-13.205 11.492-13.205 7.961 0 10.027 7.006 10.027 11.492a11.5 11.5 0 0 1-.148 2.119Zm12.953-3.174c.048-2.773-1.16-7.207-6.1-7.207-4.534 0-6.452 4.133-6.805 7.207Z" fill="#7bb010"></path><path data-name="Path 1691" d="M464.999 69.987c0-2.572-.1-4.586-.2-6.6h3.88l.2 3.928h.152a8.43 8.43 0 0 1 7.712-4.482 7.19 7.19 0 0 1 6.853 4.887h.1a9.6 9.6 0 0 1 2.773-3.178 8.18 8.18 0 0 1 5.341-1.71c3.278 0 8.065 2.115 8.065 10.581v14.365h-4.334v-13.81c0-4.735-1.766-7.508-5.292-7.508a5.82 5.82 0 0 0-5.292 3.98 7.9 7.9 0 0 0-.353 2.219v15.119h-4.334V73.162c0-3.928-1.714-6.7-5.092-6.7-2.721 0-4.787 2.215-5.493 4.434a6.2 6.2 0 0 0-.353 2.167v14.718h-4.334Z" fill="#7bb010"></path><path data-name="Path 1692" d="M511.57 76.336c.1 6 3.88 8.467 8.314 8.467a16.8 16.8 0 0 0 6.753-1.208l.81 3.126a19.95 19.95 0 0 1-8.166 1.561c-7.459 0-12-4.988-12-12.3 0-7.407 4.386-13.205 11.492-13.205 7.965 0 10.028 7.006 10.028 11.492a11.5 11.5 0 0 1-.149 2.119Zm12.952-3.174c.052-2.773-1.16-7.207-6.1-7.207-4.534 0-6.452 4.133-6.8 7.207Z" fill="#7bb010"></path><path data-name="Path 1693" d="M538.835 76.336c.1 6 3.88 8.467 8.314 8.467a16.8 16.8 0 0 0 6.753-1.208l.81 3.126a19.95 19.95 0 0 1-8.166 1.561c-7.459 0-12-4.988-12-12.3 0-7.407 4.386-13.205 11.492-13.205 7.965 0 10.028 7.006 10.028 11.492a11.5 11.5 0 0 1-.149 2.119Zm12.953-3.174c.052-2.773-1.16-7.207-6.1-7.207-4.534 0-6.452 4.133-6.8 7.207Z" fill="#7bb010"></path><path data-name="Path 1694" d="M563.582 69.987c0-2.572-.048-4.586-.2-6.6h3.933l.249 3.981h.1a9.03 9.03 0 0 1 8.061-4.534c3.378 0 8.619 2.014 8.619 10.381v14.566h-4.434V73.717c0-3.928-1.461-7.255-5.646-7.255a6.4 6.4 0 0 0-5.947 4.534 6.5 6.5 0 0 0-.3 2.066V87.78h-4.438Z" fill="#7bb010"></path><path data-name="Path 1695" d="M598.711 57.541v5.846h6.352v3.375h-6.352v13.157c0 3.025.859 4.739 3.327 4.739a8.3 8.3 0 0 0 2.572-.3l.2 3.375a12 12 0 0 1-3.933.606 6.3 6.3 0 0 1-4.787-1.866c-1.212-1.356-1.713-3.523-1.713-6.4v-13.31h-3.78v-3.375h3.78v-4.486Z" fill="#7bb010"></path><path data-name="Path 1696" d="M614.285 76.336c.1 6 3.88 8.467 8.314 8.467a16.9 16.9 0 0 0 6.757-1.208l.806 3.126a19.95 19.95 0 0 1-8.165 1.561c-7.46 0-12-4.988-12-12.3 0-7.407 4.385-13.205 11.492-13.205 7.965 0 10.032 7.006 10.032 11.492a11.5 11.5 0 0 1-.153 2.119Zm12.953-3.174c.052-2.773-1.16-7.207-6.1-7.207-4.534 0-6.448 4.133-6.8 7.207Z" fill="#7bb010"></path><path data-name="Path 1697" d="M742.146 126.786h56.59a12.56 12.56 0 0 1 8.892 3.7 12.42 12.42 0 0 1 3.607 8.808v32.008a11.15 11.15 0 0 1-2.837 7.351 14.24 14.24 0 0 1-7.872 4.41h-24.418a12.5 12.5 0 1 1 .04-24.99h10.091v-6.4H754.22v37.486h21.953c5.883 0 12.6 4.305 12.6 12.547s-7.034 12.548-12.6 12.548h-34.608a11.9 11.9 0 0 1-8.784-3.584 12.18 12.18 0 0 1-3.656-8.824v-62.878a12.3 12.3 0 0 1 3.78-8.719 13.46 13.46 0 0 1 9.241-3.463" fill="#55127b"></path></g></svg> 