<?xml version="1.0" encoding="UTF-8"?> <svg xmlns="http://www.w3.org/2000/svg" width="285" height="100" viewBox="0 0 285 100" fill="none"><g clip-path="url(#a)"><path d="M27.46 54.92c15.166 0 27.46-12.294 27.46-27.46S42.626 0 27.46 0 0 12.294 0 27.46s12.294 27.46 27.46 27.46" fill="#005B9D"></path><path d="M66.7 77.09c15.166 0 27.46-12.294 27.46-27.46S81.866 22.17 66.7 22.17 39.24 34.464 39.24 49.63 51.534 77.09 66.7 77.09" fill="#FE0"></path><path d="M27.93 99.9c15.166 0 27.46-12.294 27.46-27.46S43.096 44.98 27.93 44.98.47 57.274.47 72.44 12.764 99.9 27.93 99.9" fill="#13A337"></path><path d="M55.23 74.32c-8.8-4.07-14.82-12.57-15.74-22.2l-.02-.18-.17.08c-3.7 1.78-7.82 2.73-11.92 2.73-4.64 0-9.24-1.2-13.31-3.48-.65-.36-1.3-.76-1.91-1.17a27.64 27.64 0 0 1 15.78-4.99c3.93 0 7.74.83 11.32 2.47l.17.08v-.18c.68-8.89 5.64-16.92 13.28-21.47.64-.38 1.31-.74 1.97-1.07.87 9.66-3.47 19.12-11.36 24.73l-.15.11.15.1a27.37 27.37 0 0 1 11.9 24.47z" fill="#fff"></path><path d="M54.58 25.11c.79 9.49-3.47 18.76-11.18 24.32a29 29 0 0 0-3.81-2.15c.71-8.78 5.63-16.69 13.19-21.19.59-.35 1.19-.68 1.8-.98M27.94 44.96v.26c3.86 0 7.59.8 11.11 2.38-.08 1.16-.08 2.34-.02 3.5l.06.87a27.4 27.4 0 0 1-11.7 2.64 27.16 27.16 0 0 1-15-4.54 27.5 27.5 0 0 1 15.55-4.86v-.26m11.61 2.88a26.4 26.4 0 0 1 3.4 1.92c-.5.35-1.02.68-1.56 1-.59.35-1.19.68-1.8.98-.02-.22-.03-.44-.05-.66-.02-.4-.04-.8-.04-1.2 0-.68 0-1.37.05-2.05m3.85 2.23c7.24 5 11.64 13.22 11.76 22.02 0 .68 0 1.37-.05 2.05-8.61-4.06-14.52-12.39-15.48-21.84.69-.34 1.37-.71 2.03-1.1.59-.35 1.17-.73 1.74-1.12m11.4-25.35c-.73.35-1.45.74-2.15 1.16-7.99 4.76-12.69 12.95-13.33 21.57 1.43.65 2.8 1.42 4.08 2.3 8.19-5.82 12.32-15.48 11.4-25.03M27.94 44.96c-5.72 0-11.33 1.79-16 5.12.67.45 1.36.88 2.08 1.28 4.24 2.37 8.84 3.5 13.38 3.5 4.15 0 8.25-.94 11.97-2.74a28 28 0 0 1-.05-4.69 27.25 27.25 0 0 0-11.37-2.48zm11.38 2.48c-.06.8-.08 1.62-.07 2.44a25 25 0 0 0 .12 2.24c.73-.35 1.44-.73 2.15-1.16 0 0 .01 0 .02-.01.63-.38 1.25-.78 1.86-1.22-.67-.46-1.36-.88-2.08-1.28-.66-.37-1.33-.71-2-1.02zm4.08 2.3c-.6.43-1.22.83-1.86 1.22-.71.42-1.43.81-2.17 1.17.95 10 7.25 18.41 15.98 22.38.06-.8.09-1.62.07-2.44-.13-9.3-4.87-17.46-12.01-22.33z" fill="#fff"></path><path d="M43.45 49.77c-.67-.45-1.36-.88-2.07-1.28s-1.37-.74-2.07-1.06c-.11 1.56-.09 3.14.07 4.72.71-.34 1.42-.71 2.13-1.13.67-.39 1.32-.8 1.94-1.24m60.48-4.53c-.66 0-1.23-.09-1.72-.26s-.91-.43-1.25-.77a3.3 3.3 0 0 1-.83-1.4q-.24-.81-.24-2.01v-6.98h1.49v6.98c0 .52.03.95.1 1.3.06.35.19.67.38.95.2.3.47.53.82.68.34.16.76.23 1.26.23.47 0 .88-.08 1.24-.23s.64-.38.84-.68c.19-.29.31-.6.38-.95s.1-.77.1-1.27v-7.02h1.49v6.98c0 .78-.08 1.44-.24 2s-.43 1.03-.83 1.41c-.36.35-.77.6-1.24.77s-1.05.26-1.74.26zm7.8-10.03h-1.61v-1.47h1.61zm-.1 9.8h-1.41v-8.39h1.41zm4.83.16q-1.155 0-1.8-.66c-.43-.44-.65-1.13-.65-2.08v-4.65h-.95v-1.17h.95v-2.41h1.41v2.41h2.6v1.17h-2.6v3.99c0 .43 0 .75.02.98s.07.45.17.65c.08.18.22.31.41.39.19.09.45.13.77.13.23 0 .45-.03.67-.1s.37-.12.47-.17h.08v1.27c-.27.08-.53.13-.81.18q-.405.06-.75.06zm9.24-8.56-3.16 8.39h-1.27l-3.14-8.39h1.53l2.3 6.48 2.28-6.48h1.47zm8.03 4.2q0 2.115-1.02 3.27c-.68.77-1.59 1.15-2.72 1.15s-2.09-.4-2.75-1.19c-.67-.79-1-1.87-1-3.24s.34-2.49 1.03-3.27 1.6-1.17 2.72-1.17 2.04.39 2.72 1.16q1.02 1.155 1.02 3.27zm-1.45 0c0-1.09-.2-1.89-.59-2.42-.4-.53-.96-.79-1.69-.79s-1.3.26-1.7.79-.6 1.34-.6 2.42.2 1.85.6 2.39.97.82 1.7.82 1.29-.27 1.69-.8.6-1.34.6-2.41zm6.73 4.39c-1.34 0-2.38-.38-3.11-1.13s-1.11-1.82-1.11-3.21.36-2.46 1.07-3.27c.72-.81 1.65-1.21 2.81-1.21.52 0 .98.08 1.38.23s.75.39 1.05.71.53.71.69 1.18c.16.46.24 1.03.24 1.7v.77h-5.82c0 .98.25 1.72.74 2.24s1.17.77 2.04.77c.31 0 .62-.03.91-.1q.45-.105.81-.27c.26-.12.47-.23.65-.33s.32-.21.44-.3h.08v1.54c-.17.07-.37.15-.62.24a6.6 6.6 0 0 1-1.41.4c-.22.04-.51.06-.85.06zm1.66-5.33c0-.38-.05-.71-.13-.98a2 2 0 0 0-.35-.7c-.16-.21-.38-.37-.63-.48-.26-.11-.58-.17-.96-.17s-.7.06-.96.17-.5.28-.72.49c-.21.22-.37.46-.48.73s-.18.58-.21.94zm7.43-1.74h-.08a2 2 0 0 0-.33-.06c-.12 0-.26-.01-.42-.01-.38 0-.76.08-1.13.25-.38.17-.73.41-1.07.74v5.96h-1.41v-8.39h1.41v1.25c.52-.46.97-.78 1.35-.97s.76-.28 1.12-.28c.15 0 .25 0 .33.01.07 0 .15.02.24.03v1.47zm2.83-2.92h-1.61v-1.47h1.61zm-.1 9.8h-1.41v-8.39h1.41zm8.86 0h-1.41v-4.78q0-.585-.06-1.08c-.04-.33-.11-.6-.21-.8-.12-.21-.28-.37-.48-.47q-.315-.15-.84-.15c-.35 0-.71.09-1.09.28-.37.19-.74.43-1.09.73v6.27h-1.41v-8.39h1.41v.93c.42-.38.84-.66 1.25-.86s.84-.3 1.3-.3c.83 0 1.47.27 1.94.82.47.54.7 1.33.7 2.36v5.45zm2.46 1.34c.1.04.24.09.42.16.19.07.4.13.63.19.26.06.5.12.72.16q.33.06.72.06c.44 0 .81-.06 1.11-.17s.54-.28.71-.48c.16-.21.27-.44.34-.71s.1-.58.1-.92v-.74c-.38.33-.75.58-1.12.73-.37.16-.82.24-1.38.24-.96 0-1.72-.36-2.28-1.07-.57-.71-.85-1.73-.85-3.07 0-.7.1-1.31.29-1.85s.46-1 .79-1.37c.32-.36.69-.64 1.12-.83.43-.2.88-.29 1.34-.29.44 0 .81.05 1.13.15s.64.25.96.44l.08-.36h1.33v7.44c0 1.42-.31 2.47-.93 3.13-.62.67-1.57 1-2.85 1-.41 0-.83-.03-1.26-.1s-.83-.15-1.2-.26v-1.47h.08zm4.75-3.62v-4.61c-.35-.17-.68-.29-.97-.36-.3-.07-.59-.11-.89-.11-.72 0-1.28.26-1.69.79s-.62 1.28-.62 2.26.16 1.64.47 2.13.82.73 1.52.73c.37 0 .74-.07 1.13-.22s.74-.35 1.05-.61m5.91 2.48c-.56 0-1.09-.08-1.57-.23s-.89-.31-1.21-.48v-1.59h.08c.12.1.26.2.42.32s.38.24.65.36c.24.11.5.21.79.29s.59.13.9.13c.23 0 .47-.03.72-.08s.45-.12.57-.2c.17-.12.3-.24.38-.37s.12-.33.12-.59c0-.34-.09-.59-.27-.76s-.51-.31-.97-.43c-.18-.04-.42-.1-.71-.16s-.56-.13-.8-.2c-.64-.19-1.11-.47-1.4-.86s-.44-.86-.44-1.41c0-.76.29-1.37.86-1.85s1.33-.71 2.28-.71c.47 0 .93.06 1.41.17s.87.26 1.19.44v1.51h-.08c-.36-.29-.76-.51-1.21-.68-.44-.17-.89-.25-1.34-.25s-.86.1-1.18.29-.48.49-.48.89c0 .35.1.61.29.79s.5.31.92.42c.21.06.44.11.7.16s.53.11.82.18c.62.16 1.09.41 1.4.77s.47.85.47 1.47c0 .36-.07.7-.21 1.03s-.35.6-.63.83q-.45.375-1.02.57c-.38.13-.85.2-1.42.2zm11.69-4.4q0 2.115-1.02 3.27c-.68.77-1.59 1.15-2.72 1.15s-2.08-.4-2.75-1.19-1-1.87-1-3.24.34-2.49 1.03-3.27 1.6-1.17 2.72-1.17 2.04.39 2.72 1.16q1.02 1.155 1.02 3.27zm-1.46 0c0-1.09-.2-1.89-.59-2.42-.4-.53-.96-.79-1.69-.79s-1.3.26-1.7.79-.6 1.34-.6 2.42.2 1.85.6 2.39.97.82 1.7.82 1.29-.27 1.69-.8.6-1.34.6-2.41zm7.55-2.68h-.08a2 2 0 0 0-.33-.06c-.12 0-.26-.01-.42-.01-.38 0-.76.08-1.13.25-.38.17-.73.41-1.07.74v5.96h-1.41v-8.39h1.41v1.25c.52-.46.97-.78 1.35-.97s.76-.28 1.12-.28c.15 0 .25 0 .33.01.07 0 .15.02.24.03v1.47zm1.5 8.22c.1.04.24.09.42.16.19.07.4.13.63.19.26.06.5.12.72.16q.33.06.72.06c.44 0 .81-.06 1.11-.17s.54-.28.71-.48c.16-.21.27-.44.34-.71s.1-.58.1-.92v-.74c-.38.33-.75.58-1.12.73-.37.16-.82.24-1.38.24-.96 0-1.72-.36-2.28-1.07-.57-.71-.85-1.73-.85-3.07 0-.7.1-1.31.29-1.85.2-.54.46-1 .79-1.37.32-.36.69-.64 1.12-.83.43-.2.88-.29 1.34-.29.44 0 .81.05 1.13.15s.64.25.96.44l.08-.36h1.33v7.44c0 1.42-.31 2.47-.93 3.13-.62.67-1.57 1-2.85 1-.41 0-.83-.03-1.26-.1s-.83-.15-1.2-.26v-1.47h.08zm4.75-3.62v-4.61c-.35-.17-.68-.29-.97-.36-.3-.07-.59-.11-.89-.11-.72 0-1.28.26-1.69.79s-.62 1.28-.62 2.26.16 1.64.47 2.13.82.73 1.52.73c.37 0 .74-.07 1.13-.22s.74-.35 1.05-.61m8.33 1.38c-.12.08-.27.2-.46.36-.19.15-.38.27-.56.36-.25.13-.49.23-.73.3-.23.07-.56.1-.98.1-.35 0-.67-.06-.98-.2s-.58-.31-.82-.55c-.23-.23-.41-.51-.54-.85s-.2-.7-.2-1.07c0-.58.12-1.08.37-1.48.25-.41.63-.73 1.17-.97.47-.22 1.03-.36 1.67-.45q.96-.12 2.07-.18v-.27c0-.33-.05-.6-.15-.8s-.24-.36-.42-.47-.4-.19-.66-.23-.53-.06-.8-.06c-.33 0-.71.05-1.15.15q-.66.15-1.32.42h-.08v-1.44c.26-.08.63-.16 1.12-.25s.97-.14 1.44-.14c.58 0 1.06.04 1.46.14.4.09.75.25 1.07.49.31.23.53.53.68.89s.23.81.23 1.34V45h-1.41v-.89zm0-1.17v-2.33c-.34.03-.76.07-1.27.12s-.93.13-1.24.22c-.38.12-.69.29-.93.53s-.37.57-.37 1c0 .48.14.84.41 1.09s.67.37 1.19.37c.45 0 .85-.1 1.21-.29s.7-.43 1.01-.71zm10.18 2.07h-1.41v-4.78q0-.585-.06-1.08c-.04-.33-.11-.6-.21-.8-.12-.21-.28-.37-.48-.47q-.315-.15-.84-.15c-.35 0-.71.09-1.09.28-.37.19-.74.43-1.09.73v6.27h-1.41v-8.39h1.41v.93c.42-.38.84-.66 1.25-.86s.84-.3 1.3-.3c.83 0 1.47.27 1.94.82.47.54.7 1.33.7 2.36v5.45zm3.71-9.8h-1.61v-1.47h1.61zm-.1 9.8h-1.41v-8.39h1.41zm4.53.2c-.56 0-1.09-.08-1.57-.23s-.89-.31-1.21-.48v-1.59h.08c.12.1.26.2.42.32s.38.24.65.36c.24.11.5.21.79.29s.59.13.9.13c.23 0 .47-.03.72-.08s.45-.12.57-.2c.17-.12.3-.24.38-.37s.12-.33.12-.59c0-.34-.09-.59-.27-.76s-.51-.31-.97-.43c-.18-.04-.42-.1-.71-.16s-.56-.13-.8-.2c-.64-.19-1.11-.47-1.4-.86s-.44-.86-.44-1.41c0-.76.29-1.37.86-1.85s1.33-.71 2.28-.71c.47 0 .93.06 1.41.17s.87.26 1.19.44v1.51h-.08c-.36-.29-.76-.51-1.21-.68-.44-.17-.89-.25-1.34-.25s-.86.1-1.18.29-.48.49-.48.89c0 .35.1.61.29.79s.5.31.92.42c.21.06.44.11.7.16s.53.11.82.18c.62.16 1.09.41 1.4.77s.47.85.47 1.47c0 .36-.07.7-.21 1.03s-.35.6-.63.83q-.45.375-1.02.57c-.38.13-.85.2-1.42.2zm9.47-1.1c-.12.08-.27.2-.46.36-.19.15-.38.27-.56.36-.25.13-.49.23-.73.3-.23.07-.56.1-.98.1-.35 0-.67-.06-.98-.2s-.58-.31-.82-.55c-.23-.23-.41-.51-.54-.85s-.2-.7-.2-1.07c0-.58.12-1.08.37-1.48.25-.41.63-.73 1.17-.97.47-.22 1.03-.36 1.67-.45q.96-.12 2.07-.18v-.27c0-.33-.05-.6-.15-.8s-.24-.36-.42-.47-.4-.19-.66-.23-.53-.06-.8-.06c-.33 0-.71.05-1.15.15q-.66.15-1.32.42h-.08v-1.44c.26-.08.63-.16 1.12-.25s.97-.14 1.44-.14c.58 0 1.06.04 1.46.14.4.09.75.25 1.07.49.31.23.53.53.68.89s.23.81.23 1.34V45h-1.41v-.89zm0-1.17v-2.33c-.34.03-.76.07-1.27.12s-.93.13-1.24.22c-.38.12-.69.29-.93.53s-.37.57-.37 1c0 .48.14.84.41 1.09s.67.37 1.19.37c.45 0 .85-.1 1.21-.29s.7-.43 1.01-.71zm6.11 2.23q-1.155 0-1.8-.66c-.43-.44-.65-1.13-.65-2.08v-4.65h-.95v-1.17h.95v-2.41h1.41v2.41h2.6v1.17h-2.6v3.99c0 .43 0 .75.02.98.01.23.07.45.17.65.08.18.22.31.41.39.19.09.45.13.77.13.23 0 .45-.03.67-.1s.37-.12.47-.17h.08v1.27c-.27.08-.54.13-.81.18-.27.04-.53.06-.76.06zm4.33-9.96h-1.61v-1.47h1.61zm-.09 9.8h-1.41v-8.39h1.41zm5.9.19c-1.34 0-2.38-.38-3.12-1.13q-1.11-1.125-1.11-3.21c0-1.39.36-2.46 1.07-3.27.72-.81 1.65-1.21 2.81-1.21.52 0 .98.08 1.38.23s.75.39 1.05.71.53.71.69 1.18c.16.46.24 1.03.24 1.7v.77h-5.82c0 .98.25 1.72.74 2.24s1.17.77 2.04.77c.31 0 .62-.03.91-.1s.57-.16.81-.27c.26-.12.47-.23.65-.33s.32-.21.44-.3h.08v1.54c-.17.07-.37.15-.62.24s-.47.17-.66.23c-.28.08-.53.13-.75.17q-.33.06-.84.06zm1.65-5.33c0-.38-.05-.71-.13-.98a2 2 0 0 0-.35-.7q-.255-.315-.63-.48c-.26-.11-.58-.17-.96-.17s-.7.06-.96.17-.5.28-.72.49c-.21.22-.37.46-.48.73s-.18.58-.21.94zm15.69 1.7c0 .56-.11 1.05-.32 1.47-.21.43-.49.78-.85 1.05-.42.33-.87.56-1.35.7q-.72.21-1.86.21h-3.21V33.82h2.97c.8 0 1.39.03 1.79.08s.78.18 1.15.37c.4.22.69.5.88.85s.28.76.28 1.23q0 .795-.42 1.41c-.28.42-.66.74-1.15.98v.06c.67.18 1.18.51 1.55.99s.55 1.08.55 1.79zm-2.08-5.02c0-.27-.04-.5-.13-.7s-.24-.35-.44-.47c-.24-.14-.51-.22-.8-.25-.3-.03-.7-.05-1.22-.05h-1.43v3.28h1.69c.47 0 .81-.02 1.03-.07s.45-.15.68-.3q.345-.225.48-.57c.09-.24.14-.53.14-.87m.53 5.08c0-.42-.06-.77-.18-1.04s-.36-.5-.73-.69c-.24-.12-.49-.21-.77-.24s-.67-.05-1.18-.05h-1.69v4.13h1.21c.65 0 1.17-.03 1.54-.09.38-.06.71-.19.99-.38.28-.2.49-.42.62-.67s.2-.57.2-.97zm10.8-.06c0 .56-.11 1.05-.32 1.47-.21.43-.49.78-.85 1.05-.42.33-.87.56-1.35.7q-.72.21-1.86.21h-3.21V33.82h2.97c.8 0 1.39.03 1.79.08s.78.18 1.15.37c.4.22.69.5.88.85s.28.76.28 1.23q0 .795-.42 1.41c-.28.42-.66.74-1.15.98v.06c.67.18 1.18.51 1.55.99s.55 1.08.55 1.79zm-2.07-5.02c0-.27-.04-.5-.13-.7s-.24-.35-.44-.47c-.24-.14-.51-.22-.8-.25-.3-.03-.7-.05-1.22-.05h-1.43v3.28h1.69c.47 0 .81-.02 1.03-.07s.45-.15.68-.3q.345-.225.48-.57c.09-.24.14-.53.14-.87m.52 5.08c0-.42-.06-.77-.18-1.04s-.36-.5-.73-.69c-.24-.12-.49-.21-.77-.24s-.67-.05-1.18-.05h-1.69v4.13h1.21c.65 0 1.17-.03 1.54-.09.38-.06.71-.19.99-.38.28-.2.49-.42.62-.67s.2-.57.2-.97zm6.34 3.58c-.81 0-1.5-.08-2.07-.25s-1.1-.37-1.6-.62v-1.86h.1c.49.46 1.05.82 1.67 1.07s1.22.38 1.8.38q1.23 0 1.86-.51c.42-.34.63-.8.63-1.36 0-.45-.11-.81-.33-1.09s-.57-.49-1.05-.62c-.35-.1-.66-.18-.95-.25-.29-.06-.64-.15-1.07-.26-.39-.1-.73-.23-1.04-.38s-.58-.36-.81-.61-.41-.53-.54-.87c-.13-.33-.19-.72-.19-1.15 0-.91.35-1.67 1.06-2.28s1.61-.92 2.71-.92c.63 0 1.22.06 1.78.19.56.12 1.08.3 1.55.53v1.78h-.11c-.36-.33-.81-.61-1.37-.85s-1.14-.36-1.75-.36q-1.035 0-1.68.48c-.43.32-.64.75-.64 1.27 0 .48.12.85.38 1.13.25.28.61.49 1.09.62.32.08.7.18 1.16.29s.83.21 1.13.3c.77.24 1.33.59 1.69 1.07s.53 1.06.53 1.76q0 .66-.27 1.29c-.18.42-.43.79-.75 1.08-.36.33-.77.58-1.22.75s-1.02.26-1.7.26zM106.02 62.34c0 .39-.08.73-.23 1.02-.15.3-.35.54-.61.73-.3.23-.62.39-.97.49-.34.1-.79.14-1.34.14h-2.3v-7.75h2.13c.57 0 1 .02 1.28.05.29.04.56.12.82.26.29.15.5.34.63.59.13.24.2.53.2.85 0 .36-.1.69-.3.98s-.48.51-.83.68v.04q.72.18 1.11.69c.26.34.39.75.39 1.24zm-1.48-3.48c0-.19-.03-.35-.1-.49a.7.7 0 0 0-.31-.33c-.17-.09-.36-.15-.58-.17s-.5-.03-.88-.03h-1.02v2.27h1.21c.33 0 .58-.02.74-.05s.32-.1.49-.21c.16-.1.28-.23.34-.4.07-.16.1-.36.1-.6zm.37 3.52c0-.29-.04-.53-.13-.72s-.26-.35-.52-.48c-.17-.09-.35-.14-.55-.17-.2-.02-.48-.04-.85-.04h-1.21v2.86h.87c.47 0 .83-.02 1.1-.06s.51-.13.71-.27.35-.29.44-.46.14-.4.14-.67zm2.41 2.34 2.7-7.75h1.31l2.7 7.75h-1.13l-.73-2.17h-3.06l-.73 2.17h-1.08zm4.57-3.05-1.24-3.66-1.23 3.66zm3.15 3.05 2.7-7.75h1.31l2.7 7.75h-1.13l-.73-2.17h-3.06l-.73 2.17h-1.08zm4.57-3.05-1.24-3.66-1.23 3.66zm10.23 3.05h-1.38l-2.54-3.08h-1.22v3.08h-1.07v-7.75h2.07c.46 0 .84.02 1.16.07s.61.16.89.34c.28.17.5.4.67.67.16.27.25.61.25 1.02 0 .57-.15 1.04-.45 1.43-.3.38-.7.67-1.22.85l2.86 3.37zm-2.31-5.57q0-.345-.12-.6c-.08-.17-.21-.32-.38-.43-.15-.1-.33-.17-.53-.21q-.3-.06-.75-.06h-1.06v2.93h.94c.31 0 .58-.03.82-.08s.45-.16.62-.32c.15-.15.27-.32.34-.52s.11-.44.11-.71zm9.78 5.57h-1.2l-3.54-6.69v6.69h-1v-7.75h1.51l3.23 6.14v-6.14h1zm9.99-2.92h-3.04v-.94h3.04zm12.4.54c0 .39-.08.73-.23 1.02-.15.3-.35.54-.61.73-.3.23-.62.39-.97.49-.34.1-.79.14-1.34.14h-2.3v-7.75h2.13c.57 0 1 .02 1.29.05.29.04.56.12.82.26.29.15.5.34.63.59.13.24.2.53.2.85 0 .36-.1.69-.3.98s-.47.51-.83.68v.04q.72.18 1.11.69c.26.33.39.75.39 1.24zm-1.49-3.48c0-.19-.03-.35-.1-.49a.76.76 0 0 0-.31-.33c-.17-.09-.36-.15-.58-.17s-.5-.03-.88-.03h-1.02v2.27h1.21c.33 0 .58-.02.74-.05s.32-.1.49-.21c.16-.1.28-.23.34-.4.07-.16.1-.36.1-.6zm.38 3.52c0-.29-.04-.53-.13-.72s-.26-.35-.52-.48c-.17-.09-.35-.14-.55-.17s-.48-.04-.85-.04h-1.21v2.86h.87c.47 0 .83-.02 1.1-.06s.51-.13.71-.27.35-.29.44-.46.14-.4.14-.67zm6.07 2.5q-.705 0-1.23-.18c-.35-.12-.65-.3-.9-.53a2.16 2.16 0 0 1-.59-.97c-.12-.38-.17-.84-.17-1.39v-4.84h1.07v4.84c0 .36.02.66.07.9q.075.36.27.66c.14.21.34.37.58.47.25.11.55.16.9.16.33 0 .63-.05.89-.16s.46-.27.6-.47q.195-.3.27-.66c.05-.24.07-.53.07-.88v-4.86h1.07v4.84c0 .54-.06 1-.17 1.39s-.31.71-.59.98c-.26.24-.55.42-.89.54s-.76.18-1.25.18zm11.28-.16h-1.2l-3.54-6.69v6.69h-1v-7.75h1.51l3.23 6.14v-6.14h1zm4.96.14c-.58 0-1.08-.06-1.48-.17-.41-.12-.79-.26-1.15-.43v-1.29h.08c.35.32.75.57 1.2.74s.87.26 1.29.26c.59 0 1.03-.12 1.34-.36s.45-.55.45-.94q0-.465-.24-.75c-.16-.19-.41-.34-.75-.43-.25-.07-.47-.13-.68-.17-.2-.05-.46-.11-.77-.18-.28-.07-.52-.16-.74-.27s-.41-.25-.58-.42-.29-.37-.39-.6c-.09-.23-.14-.5-.14-.8 0-.63.25-1.16.76-1.58.51-.43 1.15-.64 1.94-.64.45 0 .87.04 1.27.13s.77.21 1.11.37v1.23h-.08c-.25-.23-.58-.42-.98-.59s-.82-.25-1.25-.25c-.5 0-.9.11-1.2.34-.31.22-.46.52-.46.88 0 .33.09.59.27.79s.44.34.78.43c.23.06.5.13.83.2q.495.105.81.21c.55.16.96.41 1.21.74s.38.74.38 1.22c0 .3-.06.6-.19.9q-.195.45-.54.75c-.26.23-.55.4-.88.52s-.73.18-1.22.18zm8.15 0c-.52 0-1.01-.08-1.45-.26-.44-.17-.82-.42-1.14-.76a3.4 3.4 0 0 1-.74-1.26c-.18-.5-.26-1.08-.26-1.73s.08-1.21.26-1.7q.255-.72.75-1.26c.32-.35.7-.61 1.14-.79q.66-.27 1.47-.27c.27 0 .52.02.76.06s.45.09.65.15c.17.05.35.12.53.2s.36.16.54.26v1.24h-.09q-.135-.12-.36-.3c-.15-.12-.33-.23-.54-.35-.2-.11-.43-.2-.67-.27s-.52-.1-.83-.1c-.34 0-.66.07-.97.2s-.57.33-.8.6c-.23.26-.4.6-.53.99-.13.4-.19.85-.19 1.35 0 .53.07.99.2 1.37s.31.71.54.97c.22.26.48.45.79.58.3.13.62.2.96.2.31 0 .59-.04.86-.11.26-.07.5-.16.7-.28q.3-.165.51-.33c.14-.11.26-.21.34-.29h.08v1.23c-.18.08-.34.16-.5.23q-.24.105-.57.21c-.23.07-.45.13-.65.17q-.3.06-.78.06zm10.42-.14h-1.07v-3.8h-3.69v3.8h-1.07v-7.75h1.07v3.04h3.69v-3.04h1.07zm8.4-6.86c.3.34.54.76.71 1.27s.25 1.08.25 1.72-.08 1.2-.25 1.7c-.17.51-.4.93-.72 1.28-.33.36-.71.63-1.14.8-.44.17-.92.26-1.44.26s-1.03-.09-1.47-.27c-.43-.18-.81-.44-1.12-.79-.31-.34-.55-.77-.71-1.27s-.25-1.07-.25-1.71.08-1.23.25-1.72.4-.92.71-1.27c.31-.34.68-.6 1.12-.78s.92-.27 1.46-.27 1.04.09 1.48.28q.66.27 1.11.78zm-.14 2.99c0-.51-.06-.97-.17-1.36-.11-.4-.28-.72-.48-.98-.21-.27-.47-.47-.77-.6s-.64-.2-1.01-.2-.73.06-1.01.2c-.29.13-.55.33-.77.61-.21.26-.37.6-.49 1-.11.4-.17.85-.17 1.35q0 1.53.66 2.34c.44.54 1.03.81 1.78.81s1.34-.27 1.78-.81q.66-.81.66-2.34zm5 3.87v-6.84h-2.69v-.92h6.45v.92h-2.69v6.84zm5.67 0v-7.75h5.02v.92h-3.95v2.12h3.68v.92h-3.68v2.88h3.95v.92h-5.02zm13.03 0h-1.2l-3.54-6.69v6.69h-1v-7.75h1.51l3.23 6.14v-6.14h1zm9.99-2.92h-3.04v-.94h3.04zm9.19 3.06c-.58 0-1.08-.06-1.48-.17-.41-.12-.79-.26-1.15-.43v-1.29h.08c.35.32.75.57 1.2.74s.87.26 1.29.26c.59 0 1.03-.12 1.34-.36s.45-.55.45-.94q0-.465-.24-.75c-.16-.19-.41-.34-.75-.43-.25-.07-.47-.13-.68-.17-.2-.05-.46-.11-.77-.18-.28-.07-.52-.16-.74-.27s-.41-.25-.58-.42-.29-.37-.39-.6c-.09-.23-.14-.5-.14-.8 0-.63.25-1.16.76-1.58.51-.43 1.15-.64 1.94-.64.45 0 .87.04 1.27.13s.77.21 1.11.37v1.23h-.08c-.25-.23-.58-.42-.98-.59s-.82-.25-1.25-.25c-.5 0-.9.11-1.2.34-.31.22-.46.52-.46.88 0 .33.09.59.27.79s.44.34.78.43c.23.06.5.13.83.2q.495.105.81.21c.55.16.96.41 1.21.74s.38.74.38 1.22c0 .3-.06.6-.19.9q-.195.45-.54.75c-.26.23-.55.4-.88.52s-.73.18-1.22.18zm10.69-7c.3.34.54.76.71 1.27s.25 1.08.25 1.72-.08 1.2-.25 1.7c-.17.51-.4.93-.72 1.28-.33.36-.71.63-1.14.8-.44.17-.92.26-1.44.26s-1.03-.09-1.47-.27c-.43-.18-.81-.44-1.12-.79-.31-.34-.55-.77-.71-1.27s-.25-1.07-.25-1.71.08-1.23.25-1.72.4-.92.71-1.27c.31-.34.68-.6 1.12-.78s.92-.27 1.46-.27 1.04.09 1.48.28q.66.27 1.11.78zm-.15 2.99c0-.51-.06-.97-.17-1.36-.11-.4-.28-.72-.48-.98-.21-.27-.47-.47-.77-.6s-.64-.2-1.01-.2-.73.06-1.01.2c-.29.13-.55.33-.77.61-.21.26-.37.6-.49 1-.11.4-.17.85-.17 1.35q0 1.53.66 2.34c.44.54 1.03.81 1.78.81s1.34-.27 1.78-.81q.66-.81.66-2.34zm3.39 3.87v-7.75h5.02v.92h-3.95v2.12h3.68v.92h-3.68v2.88h3.95v.92h-5.02zm9.52.14c-.58 0-1.08-.06-1.48-.17-.41-.12-.79-.26-1.15-.43v-1.29h.08c.35.32.75.57 1.2.74s.87.26 1.29.26c.59 0 1.03-.12 1.34-.36s.45-.55.45-.94q0-.465-.24-.75c-.16-.19-.41-.34-.75-.43-.25-.07-.47-.13-.68-.17-.2-.05-.46-.11-.77-.18-.28-.07-.52-.16-.74-.27s-.41-.25-.58-.42-.29-.37-.39-.6c-.09-.23-.14-.5-.14-.8 0-.63.25-1.16.76-1.58.51-.43 1.15-.64 1.94-.64.45 0 .87.04 1.27.13s.77.21 1.11.37v1.23h-.08c-.25-.23-.58-.42-.98-.59s-.82-.25-1.25-.25c-.5 0-.9.11-1.2.34-.31.22-.46.52-.46.88 0 .33.09.59.27.79s.44.34.78.43c.23.06.5.13.83.2q.495.105.81.21c.55.16.96.41 1.21.74s.38.74.38 1.22c0 .3-.06.6-.19.9q-.195.45-.54.75c-.26.23-.55.4-.88.52s-.73.18-1.22.18zm6.89-.14v-6.84h-2.69v-.92h6.45v.92h-2.69v6.84z" fill="#1D1D1B"></path><path d="M94.16 50.66h190.3" stroke="#1D1D1B" stroke-width=".75" stroke-miterlimit="10"></path></g><defs><clipPath id="a"><path fill="#fff" d="M0 0h284.71v99.9H0z"></path></clipPath></defs></svg> 